<?xml version="1.0" encoding="utf-8"?>
<!-- Generator: Adobe Illustrator 23.1.1, SVG Export Plug-In . SVG Version: 6.00 Build 0)  -->
<svg version="1.1" id="Capa_1" xmlns="http://www.w3.org/2000/svg" xmlns:xlink="http://www.w3.org/1999/xlink" x="0px" y="0px"
	 viewBox="0 0 150 77.2" style="enable-background:new 0 0 150 77.2;" xml:space="preserve">
<style type="text/css">
	.st0{fill-rule:evenodd;clip-rule:evenodd;fill:#010202;}
</style>
<path class="st0" d="M1.7,30.9c-1.9,1.9-1.7,2.6-1.6,3.2C0.2,34.7,0,36.9,0.3,38c0.4,1.1,1.2,2.3,1.8,3.3c0.6,1,3.7,3,4.6,3.4
	c1,0.4,0.9,3.4,1.7,3.7c1,0.2,1.3,1.3,2.9,1.9c1.6,0.6,2.6,0.2,2.6,0.2s4.8,4.4,5.1,4.7c0.3,0.3,0.2,1.9,0.3,2.9
	c0.1,0.9,2.4,3,2.9,3.3c0.5,0.3,0.8,0,0.8,0s0.3,0.2,0.5,0.4c0.2,0.2,0.6,0.4,1.3,0.1c0.7-0.3,2.6-1.4,2.6-1.4s0.6,0,1.3-0.2
	c0.7-0.2,0.7-1,0.7-1s0.5-0.1,0.7-0.4c0.2-0.3,0.5-0.9,0.5-0.9s0.7-0.2,1-0.5c0.3-0.3,0.1-0.8-0.3-1.4c-0.5-0.7-2.2-1.5-2.2-1.5
	s-0.6-1-2.1-1.9c-1.5-0.9-2.5-1.4-3.4-1.9c-0.9-0.5-1.1-0.7-2.4-2c-1.3-1.3-4-4.4-4-4.4s2.2,0.7,3.7,0.8c1.5,0.1,3.2,4.3,3.6,4.4
	c0.4,0.1,2.1,0.5,3,0.7c0.9,0.2,2.3,1.6,5,1.9c2.8,0.4,2.7,0.2,4,0.1c1.2-0.1,1.5,0.7,2.8,1.8c0.6,0.6,1.4,0.9,2,1.1
	c-1.1,0.6-2.1,1.2-3.2,1.8c-4.2,2.3-10.5,5.5-10.5,5.5l1.5,2.6c0,0,2.9-1.4,7.2-4c2.1-1.2,3.9-2.6,5.4-3.7l-0.5,1.3
	c0,0-0.7,0.3-1.6,1.3c-0.9,1-3.8,3.7-5.2,4.4c-1.4,0.7-5.3,1.5-9.3,3.4c-4,1.9-6.1,6.3-6.1,6.3s2.3,2.1,2.6,2.6
	c0.3,0.4,0.9-1.8,4-4.4c3.1-2.6,7.5-4.9,10.9-5.3c3.3-0.4,5.2-3.7,5.2-3.7s-1.1,4.5-0.7,5.5c0.4,1,6.3,8.1,7.1,7.8
	c0.8-0.3,0.4-0.1,0.7,0c0.3,0.1,2.9,0.5,5.4,0.6c1.8,0,2-0.6,2.4-1.1c1,0.3,2.2,0.2,4.1-0.3c3.8-1.2,7.3,0,12.9-1.2
	c5.5-1.2,12-4.2,13.6-4.2c1,0-0.2-2.2-1.3-4.3c2.3-0.7,4.7-1.4,5.3-1.6c1.1-0.4,1.9,0.1,4.6-0.4c2.7-0.5,6.1-1.8,7.4-2.4
	c1.3-0.6,2.8-2.4,2.8-2.4s1.6,0.1,2.7,0.2c1.1,0.1,2.3-0.4,5.2-0.5c2.9-0.1,14.7,1.5,15.7,1.7c1,0.2,1.7,0.2,3-2.7
	c1.3-2.9,2-3.9,2-3.9s0.8,0.2,2.2,0.5c1.4,0.3,1.6,0.5,3.1,0.6c1.5,0.1,3.5-0.1,3.5-0.1s0.5,0.5,1.2,0.8c0.7,0.3,1.5,0.1,1.5,0.1
	s0.6,0.2,1,0c0.4-0.2,1.2-0.9,1.5-1.6c0.2-0.7,0.1-1,0.4-1.6c0.2-0.6,0.7-1.2,0.8-1.9c0.1-0.7-0.2-1.3-0.2-1.8
	c0-0.5-0.4-1.1-1.3-1.3c-0.9-0.2-0.9,0.5-0.9,0.5s-0.2,0-0.5,0.1c-0.3,0.2-0.7,0.5-0.7,0.5s-1.2-0.2-2.3-0.2c-1-0.1-2.5,0.5-3.4,0.3
	c-0.9-0.2-1.6-0.3-2.5-0.2c-0.9,0.1-3.4-0.3-3.4-0.3l-0.4-1.3c0,0-0.9-0.5-1.5-0.7c-0.6-0.3-4,0.9-6.7-0.6c-2.7-1.5-7.2-2-8.9-2.4
	c-1.7-0.4-7.5-0.2-8.5-0.6c-0.6-0.2-3.2,0.4-4.4,0.2c-1.1-0.2-3.3-1.2-4.2-1.3c-0.9-0.2-1.8-0.2-3.1-0.1c-1.2,0.1-1.5,0.7-2.9-0.1
	c-1.3-0.7-3.9-0.4-5.3-0.7c-1.4-0.2-7.1-2.5-7.1-2.5s-0.6-3.2-0.7-3.6C81,34.5,80,35,78.8,35.6c-1.2,0.6-2.5,0.6-4.9,0.2
	c-2.4-0.4-7.3,4.2-7.3,4.2s-2-2.4-2.8-3.6c-0.9-1.2-2-3.2-2-3.2s1.4-0.6,2.6-0.4c1.1,0.1,3.5-0.9,5.9-1.5c1.6-0.1,3.2-0.3,4.4-0.4h0
	l0,0c4.2-0.4,9.4-2.6,12.2-1.9c2.7,0.7,5.5,1.7,7.3,0.9c1.8-0.8,4.4-0.5,5.3-0.6c0.9-0.1,1.6-0.3,1.5-0.7c0-0.1,0-0.9,0-1.8
	c0.2-0.3,0.5-0.6,0.8-0.8c0.5-0.3,0.5-0.2,0.7-0.1c0.2,0,0.9,0.3,1.9,0.7c1,0.3,2.3,0.1,2.3,0.1s0.4,0.4,0.3,0.7
	c-0.1,0.2,0.2,0.7,0.4,0.7c0.2,0,0.9-0.4,1.1-0.6c0.2-0.2,0.6-0.1,0.9-0.3c0.3-0.1,0.6-0.4,0.8-0.2c0.2,0.1,1,0.3,1.2,0.1
	c0.2-0.1,0.7-0.6,0.8-1c0.1-0.3-0.1-0.8-0.2-0.8c-0.1,0,0-0.1,0.3-0.6c0.3-0.4,0.6-0.7,0.5-1.3c-0.1-0.6-2.6-3.4-2.8-3.7
	c-0.3-0.3-0.6-0.2-0.7-0.2c-0.1,0-0.2-0.2-0.4-0.3c-0.2-0.1-0.4,0-0.8,0.1c-0.3,0.2-4.3,1.5-4.4,1.5c-0.2,0.1-1.7,0.1-2,0.1
	c-0.3,0.1-0.1-0.9-0.2-1.3c-0.1-0.3,0-0.9-0.8-1.1c-0.8-0.2-1.4,0.4-3.6-0.1c-2.1-0.5-3.8-1.3-6.8-1.5c-3-0.2-12.1-0.7-13.2-0.6
	c-1,0.1-3.6,1-4.8,0.5c-1.2-0.5-4.2,0.1-4.7-0.1c-0.5-0.1-2.3,0.1-3.6,0c-1.3-0.1-3,0.7-3.7,0.9c-0.7,0.1-4.2-1-6-1.3
	c-1.8-0.2-5.7,0.7-7.4,0.9c0,0-0.3,0-0.4-0.3c0-0.4,0.5-0.6,1-1.6c0.5-0.9,0.2-1.7-0.1-2.9c-0.3-1.2-0.4-1.5-0.3-2.5
	c0-0.7-0.1-1.5-0.2-2c0.2-0.1,0.3-0.2,0.5-0.3c0.3-0.2,0.5-0.4,0.7-0.6c0,0,0.1-0.1,0.1-0.1c0.1-0.1,0.2-0.3,0.3-0.4
	C48.8,6.2,49,5.8,49,5.8c0,0-0.2,0.3-0.5,0.7c-0.1,0.1-0.2,0.1-0.2,0.2c0,0,0.1-0.1,0.1-0.1c0.1-0.1,0.2-0.3,0.3-0.4
	c0,0,0,0.1,0,0.1c0,0,0.1-0.1,0.2-0.3c0.1-0.1,0.1-0.2,0.2-0.3c0.2-0.4,0.3-1.1,0.3-1.6c0-0.2-0.1-0.5-0.1-0.6c0-0.2,0-0.3,0-0.3
	s0,0.1,0,0.2c0,0,0-0.1,0-0.1c0-0.1,0.1-0.2,0.1-0.2S49,3.1,48.9,3.2c0-0.1,0-0.1-0.1-0.2c0,0,0,0,0,0C48.9,2.8,49,2.7,49,2.7
	c0,0-0.1,0-0.2,0c0-0.1-0.1-0.2-0.1-0.2l0,0c0-0.1-0.1-0.2-0.1-0.2c0,0,0,0,0,0s0,0,0,0c0,0,0,0,0,0c0-0.1,0-0.1,0-0.1s0,0,0,0.1
	c0,0-0.1-0.1-0.1-0.1s0,0,0,0.1c0,0,0,0.1,0,0.1c0,0,0,0.1-0.1,0.1c-0.1,0-0.2,0-0.3,0c0.1,0,0.2,0,0.2,0c0,0-0.1,0-0.2,0
	c0,0,0-0.1,0-0.1c0,0,0,0,0,0s0,0,0,0c0,0,0,0,0,0c0.1,0,0.1,0,0.1,0s-0.1,0-0.1,0c0,0,0,0,0,0s0,0,0,0c0,0-0.1,0-0.1,0c0,0,0,0,0,0
	C47.9,2.2,48,2.1,48,2.1s-0.1,0.1-0.3,0.2c-0.1-0.1-0.1-0.1-0.2-0.1c0.2,0,0.2,0,0.2,0s-0.1,0-0.2,0c0.1-0.1,0.2-0.2,0.2-0.2
	c0,0-0.2,0.1-0.5,0.2c-0.2,0-0.5,0-0.8,0C46.8,2,47,1.9,47,1.9c0,0-0.3,0.1-0.7,0.2C46.4,2,46.5,2,46.5,2s-0.1,0-0.2,0
	c0.2-0.1,0.3-0.2,0.3-0.2S46.4,1.9,46,2c-0.2,0-0.5,0.1-0.7,0.1c0,0,0,0,0,0c0,0,0,0,0,0c0.3-0.2,0.5-0.4,0.5-0.4
	c0,0-0.3,0.1-0.6,0.3C45,2,44.9,2,44.8,2c-0.1,0-0.2,0-0.3,0c-0.1,0-0.2,0-0.2,0c0,0-0.1,0-0.1,0c0.2-0.1,0.4-0.1,0.5-0.2
	c0.1,0,0.1,0,0.1,0l-0.1,0c0.2-0.1,0.3-0.2,0.3-0.2S45,1.7,44.7,1.8l-0.3,0c0.4-0.2,0.7-0.4,0.7-0.4l-0.7,0.2
	c-0.2,0.1-0.4,0.1-0.7,0.2c-0.2,0-0.5,0-0.8,0c0,0,0,0-0.1,0c0,0,0.1,0,0.1,0c0.5-0.1,0.9-0.3,0.9-0.3c0,0-0.4,0.1-0.9,0.1
	c-0.1,0-0.1,0-0.2,0c-0.1,0-0.1,0-0.2,0c-0.4-0.1-0.9-0.2-1.3-0.3c0.2,0,0.5,0,0.6-0.1C42,1,42.2,1,42.2,1c0,0-0.1,0-0.4,0
	c-0.2,0-0.5,0-0.9,0c-0.5,0-1-0.1-1.6-0.1c0.2-0.1,0.4-0.3,0.4-0.3c0,0-0.3,0.1-0.7,0.2c-0.1,0-0.2,0-0.3,0c-0.1,0-0.1,0-0.2,0
	c0,0,0,0-0.1,0c0,0,0,0,0,0c0,0,0.1,0,0.1,0c0.5-0.1,0.9-0.2,0.9-0.2c0,0-0.4,0.1-0.9,0.1c-0.1,0-0.2,0-0.3,0c0.2,0,0.3-0.1,0.4-0.1
	C38.9,0.5,39,0.5,39,0.5c0,0-0.1,0-0.3,0.1c-0.2,0-0.5,0-0.8,0c-0.5,0-1.2-0.1-1.7-0.2c-0.4-0.1-0.7-0.1-1.1-0.1c-0.1,0-0.2,0-0.3,0
	c-0.1,0-0.3,0-0.4,0c0.1,0,0.3-0.1,0.4-0.1c0.3-0.1,0.6-0.1,0.9,0c0.2,0,0.3,0.1,0.3,0.1c0,0-0.1-0.1-0.3-0.1C35.4,0,35.1,0,34.8,0
	c-0.2,0-0.4,0-0.7,0.1C33.9,0,33.7,0,33.4,0c-0.6,0-1.3,0.1-1.9,0.4c-0.1,0-0.1,0-0.2,0c0.1-0.1,0.2-0.1,0.3-0.1
	c0.1-0.1,0.2-0.1,0.2-0.1c0,0-0.1,0-0.3,0c-0.2,0-0.4,0.1-0.6,0.1c-0.1,0-0.1,0.1-0.2,0.1c-0.3,0-0.5,0.1-0.7,0.2
	c-0.3,0.1-0.6,0.3-0.8,0.4c0-0.1,0-0.1,0-0.1S29.2,1,29.1,1.1c-0.5,0.4-0.7,0.8-0.9,1.2c0,0.1,0,0.1-0.1,0.2C28.1,2.8,28.1,2.9,28,3
	c-0.4,0.1-0.8,0.3-1.1,0.5C26.6,3.7,26.3,4,26.3,4c0,0,0.3-0.2,0.7-0.3c0.2-0.1,0.4-0.1,0.6-0.2c-0.1,0.1-0.2,0.1-0.3,0.2
	c-0.1,0-0.3,0.1-0.5,0.2c-0.4,0.3-0.8,0.8-1.1,1.2c-0.3,0.4-0.5,0.8-0.5,0.8c0,0,0.2-0.2,0.5-0.5c-0.1,0.2-0.2,0.3-0.2,0.3
	c0,0,0,0,0.1-0.1c-0.2,0.3-0.3,0.7-0.5,1c-0.1,0.3-0.2,0.5-0.3,0.8c0,0.1-0.1,0.2-0.1,0.2c-0.1,0.3-0.3,0.7-0.4,1.1
	c-1,2.7,1.2,8.3,1,8.3c-0.2,0.1-1.9,2.8-1.9,2.8s-3.2,1.7-4.5,2.1c-1.3,0.4-2.9,1.5-4.7,1.8c-1.8,0.4-1.9,0.6-2.9,1.5
	c-1,0.9-2.1,1.8-3.4,2.6C6.5,28.5,3.6,28.9,1.7,30.9L1.7,30.9z M76.5,59.5c-0.1-0.1-0.1-0.1-0.2-0.2l0,0c-1.8-1.3-6.1-2.9-1.8-2.1
	c1.2,0.2,3.4,0.2,5.5,0.2c2.1,0,3.3-0.4,4.5,0.6c1.2,1,4.5,0.2,5.1,0.2c0,0-0.7,1-2.1,1.5c-0.9,0.3-3.3,0.7-5.4,1
	c-0.9-0.8-1.7-1.5-1.9-1.6c-0.5-0.1-1.2,0.1-2,0.2C77.9,59.4,77.2,59.5,76.5,59.5L76.5,59.5z M33.4,0.2C33.4,0.2,33.5,0.2,33.4,0.2
	c-0.2,0.1-0.5,0.1-0.7,0.2c0,0-0.1,0-0.1,0C32.9,0.3,33.2,0.2,33.4,0.2L33.4,0.2L33.4,0.2z M48.2,2.8C48.2,2.8,48.3,2.8,48.2,2.8
	C48.3,2.8,48.2,2.9,48.2,2.8C48.2,2.9,48.2,2.9,48.2,2.8C48.2,2.9,48.2,2.9,48.2,2.8C48.2,2.8,48.2,2.8,48.2,2.8L48.2,2.8L48.2,2.8z
	 M47.6,6.8C47.6,6.8,47.6,6.8,47.6,6.8C47.6,6.8,47.6,6.8,47.6,6.8C47.6,6.8,47.6,6.8,47.6,6.8L47.6,6.8L47.6,6.8L47.6,6.8z
	 M47.4,2.4C47.4,2.4,47.3,2.4,47.4,2.4C47.4,2.4,47.4,2.4,47.4,2.4C47.4,2.4,47.4,2.4,47.4,2.4L47.4,2.4L47.4,2.4z M47.7,2.4
	C47.7,2.4,47.7,2.4,47.7,2.4c0.1,0,0.1,0,0.1,0.1C47.7,2.5,47.7,2.5,47.7,2.4C47.6,2.5,47.6,2.5,47.7,2.4
	C47.7,2.4,47.7,2.4,47.7,2.4L47.7,2.4L47.7,2.4z M46.9,7.5c0,0,0.1,0,0.1-0.1c0,0,0,0,0.1,0C47,7.4,46.9,7.5,46.9,7.5
	C46.9,7.5,46.9,7.5,46.9,7.5L46.9,7.5L46.9,7.5z M44.1,1.9c0.1,0,0.2,0,0.3-0.1C44.3,1.9,44.2,1.9,44.1,1.9
	C44,1.9,44.1,1.9,44.1,1.9L44.1,1.9L44.1,1.9z M47.5,2.1c0,0,0.1,0.1,0.1,0.2c0,0-0.1,0-0.1,0c0,0,0,0,0,0c-0.1,0-0.3,0-0.4,0
	c0,0,0,0,0.1,0C47.3,2.3,47.4,2.2,47.5,2.1L47.5,2.1L47.5,2.1z M47.9,2.3C47.9,2.3,47.9,2.3,47.9,2.3C47.9,2.4,47.9,2.4,47.9,2.3
	C47.9,2.3,47.9,2.3,47.9,2.3L47.9,2.3L47.9,2.3z M47.8,2.4C47.9,2.4,47.9,2.4,47.8,2.4C47.9,2.4,47.9,2.4,47.8,2.4
	C47.9,2.5,47.9,2.5,47.8,2.4C47.9,2.4,47.9,2.4,47.8,2.4L47.8,2.4L47.8,2.4z M48.5,2.3c0,0,0,0.1,0.1,0.2c0,0-0.1,0-0.1,0
	C48.5,2.4,48.5,2.4,48.5,2.3C48.5,2.3,48.5,2.3,48.5,2.3L48.5,2.3L48.5,2.3z M48.6,2.5c0,0.1,0.1,0.1,0.1,0.2
	c-0.1,0-0.2,0.1-0.3,0.1c0,0,0-0.1,0-0.1c0,0,0-0.1,0-0.1C48.5,2.6,48.6,2.6,48.6,2.5L48.6,2.5L48.6,2.5z M48.7,3.1c0,0,0,0.1,0,0.1
	c-0.1,0.1-0.3,0.2-0.2,0.1C48.6,3.3,48.7,3.2,48.7,3.1L48.7,3.1L48.7,3.1z M49.1,3.2c0,0,0,0.1,0,0.2c0,0.1,0,0.3-0.1,0.5
	c0,0.3-0.1,0.7-0.2,1c0-0.1,0-0.1,0-0.2c0-0.1,0-0.1,0.1-0.2C48.9,4.3,49,4,49,3.8c0-0.1,0-0.1,0-0.2C49,3.4,49,3.3,49.1,3.2
	L49.1,3.2L49.1,3.2z M48.3,6.3c0.1-0.2,0.2-0.3,0.3-0.5c0-0.1,0.1-0.1,0.1-0.2c0,0,0,0.1,0,0.1c-0.1,0.2-0.1,0.3-0.2,0.4l0,0
	C48.4,6.1,48.3,6.2,48.3,6.3z"/>
</svg>
