<?xml version="1.0" encoding="utf-8"?>
<!-- Generator: Adobe Illustrator 23.1.1, SVG Export Plug-In . SVG Version: 6.00 Build 0)  -->
<svg version="1.1" id="Capa_1" xmlns="http://www.w3.org/2000/svg" xmlns:xlink="http://www.w3.org/1999/xlink" x="0px" y="0px"
	 viewBox="0 0 150 93.5" style="enable-background:new 0 0 150 93.5;" xml:space="preserve">
<style type="text/css">
	.st0{fill:#010202;}
</style>
<g>
	<g>
		<polygon class="st0" points="57.6,27.7 55.1,23.2 52.7,21.1 55.8,26.5 		"/>
	</g>
	<g>
		<polygon class="st0" points="56.2,30.7 48.8,17.9 47.7,18.2 55.1,30.9 		"/>
	</g>
	<g>
		<polygon class="st0" points="66,32.8 65.4,32.3 65.5,32.5 		"/>
	</g>
	<g>
		<polygon class="st0" points="60,29.1 58.1,25.9 55.9,24 58.3,28.1 		"/>
	</g>
	<g>
		<polygon class="st0" points="59,26.7 60.6,29.5 62.4,30.6 61.2,28.7 		"/>
	</g>
	<g>
		<polygon class="st0" points="53.1,30.9 45.9,18.6 44.9,18.8 51.8,30.7 		"/>
	</g>
	<g>
		<polygon class="st0" points="57.4,29.4 58,30.3 58.2,30.2 		"/>
	</g>
	<g>
		<polygon class="st0" points="51.3,30.6 44.6,18.9 43.6,19.1 50.1,30.4 		"/>
	</g>
	<g>
		<polygon class="st0" points="54.1,31.2 54.7,31 47.3,18.3 46.3,18.5 53.6,31 		"/>
	</g>
	<g>
		<polygon class="st0" points="57.6,30.4 56.1,27.7 54.3,25.6 55.1,26.1 51.8,20.4 49.5,18.4 56.6,30.6 		"/>
	</g>
	<g>
		<polygon class="st0" points="64.9,32.1 64.5,31.5 62.1,29.4 63,31 		"/>
	</g>
	<g>
		<polygon class="st0" points="49.5,64.8 49.5,64.8 49.5,64.8 		"/>
	</g>
	<g>
		<polygon class="st0" points="65.1,43.4 59.3,33.3 58,32.9 63.8,43.1 		"/>
	</g>
	<g>
		<polygon class="st0" points="66.7,43.6 66.6,43.1 61.3,34 59.8,33.5 65.5,43.3 		"/>
	</g>
	<g>
		<path class="st0" d="M84,86c-1.4,0-2.9,0-4.4,0c-1.5,0-3,0-4.6,0c-1.5,0-3.1,0-4.6,0c-1.5,0-3,0-4.4,0c-1.2,0-2.5,0-3.6,0
			l-2.2,0.8l2.7,6.5l9.1,0.1l0.9,1.6l0.8-1.2l0.8,2.8l1-3L75,94.4l-0.4-1.9l0.8,1.1l0.6,1.2l0-0.1l1.6-2.9l0.7,1.6l0.7-0.5l0.3,0.6
			l7,0.1l2.7-6.5l-2.6-1C85.7,86,84.9,86,84,86z M85.9,88.3c-0.6,0.1-1.5,0.2-2.5,0.3c-1,0.1-2.2,0.2-3.5,0.2c-0.6,0-1.3,0-2,0.1
			c-0.7,0-1.4,0-2,0c-0.7,0-1.4,0-2,0c-0.7,0-1.3,0-2-0.1c-1.3-0.1-2.5-0.1-3.5-0.2c-1-0.1-1.9-0.2-2.5-0.3
			c-0.6-0.1-0.9-0.1-0.9-0.1s0.3-0.1,0.9-0.1c0.6-0.1,1.5-0.2,2.5-0.3c1-0.1,2.2-0.2,3.5-0.2c0.6,0,1.3-0.1,2-0.1c0.7,0,1.4,0,2,0
			c0.7,0,1.4,0,2,0c0.7,0,1.3,0,2,0.1c1.3,0.1,2.5,0.1,3.5,0.2c1,0.1,1.9,0.2,2.5,0.3c0.6,0.1,0.9,0.1,0.9,0.1S86.5,88.2,85.9,88.3z
			"/>
	</g>
	<g>
		<polygon class="st0" points="59.5,42.1 53.4,31.5 52,31 58.2,41.8 		"/>
	</g>
	<g>
		<polygon class="st0" points="50.2,30.5 56.5,41.4 57.7,41.7 51.5,30.9 		"/>
	</g>
	<g>
		<polygon class="st0" points="61.4,42.5 55.3,32.1 53.9,31.6 60,42.2 		"/>
	</g>
	<g>
		<polygon class="st0" points="63.4,43 57.4,32.8 55.9,32.3 61.9,42.7 		"/>
	</g>
	<g>
		<polygon class="st0" points="50.7,39.9 49,37.1 48.3,37.9 49.3,39.6 		"/>
	</g>
	<g>
		<polygon class="st0" points="47.4,39.1 47.5,39.2 48.8,39.5 48.1,38.3 		"/>
	</g>
	<g>
		<path class="st0" d="M65.2,46.1l-0.3-0.5l-2,5.1l-0.2,0.3l-0.8-0.2l0.4,0.6L62,51.7l-0.7-1.2l-1.4-0.4l1.5,2.6l-0.2,0.4l-1.8-3.2
			l-1.3-0.4l2.6,4.5l-0.2,0.4l-2.9-5.1L56.3,49l3.6,6.3l-0.2,0.4l-4-6.8l-1.4-0.4l4.8,8.3L59,57.1l-5.1-8.8l-1.3-0.4L58.4,58
			l-0.2,0.4L52,47.7l-0.1,0l-0.6-1.2L48,40.8l-1.3-0.4l11,18.9l-0.2,0.4L46.2,40.2l-1.3-0.5l0.8-0.5l-5.8-10c0,0.2,0,0.4-0.1,0.7
			c0,0.4-0.1,0.7-0.1,1.1l17.2,29.7l-0.2,0.4L39.6,31.6c0,0.2-0.1,0.5-0.1,0.7c0,0.3-0.1,0.6-0.1,0.8l16.7,28.9l-0.2,0.4L39.3,33.7
			c0,0.2-0.1,0.5-0.1,0.7c0,0.3-0.1,0.5-0.1,0.7l16.4,28.3l-0.2,0.4L38.9,35.6c0,0.1,0,0.2-0.1,0.2c-0.1,0.4-0.1,0.6-0.1,0.6
			s0-0.2,0-0.6c0-0.4,0-0.9,0-1.5c0-0.6,0-1.3,0.1-2.1c0-0.8,0.1-1.6,0.2-2.4c0.1-0.8,0.2-1.6,0.3-2.4c0.1-0.8,0.2-1.5,0.3-2.1
			c0.1-0.6,0.2-1.1,0.3-1.5c0.1-0.4,0.1-0.6,0.1-0.6s0,0.2,0,0.6c0,0.4,0,0.9,0,1.5c0,0.6,0,1.3-0.1,2.1c0,0.5-0.1,1.1-0.1,1.7
			l0.1-0.5l6,10.4l0.8-0.5l-6.5-11.3l0.1-0.6L47,38.3l0.8-0.5l-7.3-12.6l0.1-0.6l7.5,13l0.9-0.6L40.9,23l0.1-0.6l10.2,17.6l1.2,0.3
			L41.2,21.1l0.1-0.6l11.6,20l1.3,0.3L41.9,19.6l-1.1,0.3l0.1-1.2l-1.7,0.6l0.7,3L38,21L27,23.6l-0.1,0L37.7,26l-15.5-0.7L16,27.5
			l4.3,5.7l-5-5.4L3.1,13.9l1.3-3.3l-4.5,2.1l13.6,24l15,3.7l-0.1,0.1l3.2,0.7L22,48l-5.6,6.5l18-1.3L33.7,49l-14.8,4.2l18.4-8.3
			l0.2,0.2l1.9,7.8l0.4,0l-1.3-9.1L34,41.7l4.4,1.1l0.5-4.7l-0.1-0.7l0.2,0.3l0.1-0.6l0.8,2.1l14.8,25.6l-0.2,0.4L40.6,41.3l2.1,5.6
			l11.1,19.1l-0.2,0.4l-10-17.3l2.1,5.4l7.5,12.9l-0.2,0.4l-6.4-11.1l2.3,6l2.3,4l1.6,1.9l0.2,0.4L63,51L65.2,46.1z"/>
	</g>
	<g>
		<polygon class="st0" points="56,41.2 49.7,30.3 49.4,30.2 49.7,30.3 43.3,19.2 42.2,19.5 54.6,40.9 		"/>
	</g>
	<g>
		<path class="st0" d="M145,10.6l1.3,3.3L134,27.7l-5,5.4l4.3-5.7l-6.6-2.3L109.8,26l1.2,16.8l4.4-1.1l-4.5,2.1l-1.3,9.1l0.4,0
			l1.9-7.8l0.2-0.2l18.4,8.3L115.7,49l-0.7,4.3l18,1.3l-5.6-6.5l-9.7-6.9l3.2-0.7l-0.1-0.1l15-3.7l12.2-21.8l1.3-2.1L145,10.6z
			 M111.7,34.3l0.4-2.2l0.4,0l-0.6,3.7L111.7,34.3z M112.1,40l1.4-7.7l0.4,0l-1.6,9.2L112.1,40z M113.1,41.3l1.6-9l0.4,0l-1.6,8.8
			L113.1,41.3z M114.9,40.9l-0.4,0.1l1.5-8.5l0.4,0L114.9,40.9z M116,40.7l1.4-8l0.4,0l-1.4,7.9L116,40.7z M117.4,40.3l1.3-7.6
			l0.4,0l-1.3,7.4L117.4,40.3z M118.8,40l1.2-7.1l0.4,0l-1.2,7L118.8,40z M120.7,39.6l-0.4,0.1l1.2-6.6l0.4,0L120.7,39.6z
			 M121.7,39.3l1.1-6.1l0.4,0l-1.1,6L121.7,39.3z M123.5,38.9l-0.4,0.1l1-5.7l0.4,0L123.5,38.9z M124.9,38.6l-0.4,0.1l0.9-5.2l0.4,0
			L124.9,38.6z M126.3,38.2l-0.4,0.1l0.8-4.7l0.4,0L126.3,38.2z M127.7,37.9l-0.4,0.1l0.7-4.2l0,0l0.2,0.6L127.7,37.9z M129.2,37.5
			l-0.4,0.1l0.3-1.5l0.3,0.7L129.2,37.5z"/>
	</g>
	<g>
		<path class="st0" d="M92.4,81.2l-0.2-1.1l1.2,2.1l0-1.8l-1.7-2.9l-0.2-1.1l1.9,3.2l0-2l-2.4-4.2l-0.2-1.1l2.6,4.5l0-2.1L92,72.5
			l0.5,0.2l0.8,1.3l0-2l-16-2.7l-1.3,2.4l-1.4-2.5l-16.2,2.3l3,10.6l-3.3-3v4.3l-1.4,0.9l0.7,0.7l34.5,0.4l1.3-1.2v0l0,0l0.4-0.4
			l0-1L92.4,81.2z M65.5,79.6L65.5,79.6l-2.1,1.6l0.9-1.2L65,79l-5.7-6.7l8.9,5L65.5,79.6z M73.6,71c-0.2,0.1-0.4,0.2-0.7,0.2
			c-0.2,0-0.5,0-0.7,0c-0.2,0-0.3-0.1-0.3-0.1s0.1-0.1,0.3-0.2c0.2-0.1,0.4-0.2,0.7-0.2c0.2,0,0.5,0,0.7,0c0.2,0,0.3,0.1,0.3,0.1
			S73.8,70.9,73.6,71z M79.7,71.3c-0.2,0-0.5,0-0.7,0c-0.2,0-0.5-0.1-0.7-0.2c-0.2-0.1-0.3-0.2-0.3-0.2s0.1-0.1,0.3-0.1
			c0.2,0,0.5,0,0.7,0c0.2,0,0.5,0.1,0.7,0.2c0.2,0.1,0.3,0.2,0.3,0.2S79.9,71.2,79.7,71.3z M84.9,79.3l1.2,1.9l-1.7-1.3l0,0
			l-2.8-2.2l8.8-4.9l0,0.1L84.9,79.3L84.9,79.3z"/>
	</g>
	<g>
		<path class="st0" d="M82.7,48.8C82.7,48.9,82.7,48.9,82.7,48.8C82.7,48.9,82.7,48.9,82.7,48.8z"/>
	</g>
	<g>
		<path class="st0" d="M109.7,23.5l0.2,2.3l11.5-2.5l-9.9-2.4l-1.9,1.3l0.7-2.8L109,19l0.1,1.3l-8.3-2.1c0,0.1,0,0.2,0,0.3
			c-0.1,0.3-0.2,0.5-0.3,0.7c-0.1,0.2-0.3,0.3-0.3,0.3S100,19.3,100,19c0-0.2,0-0.5,0-0.8c0-0.1,0.1-0.2,0.1-0.3l-0.5-0.1
			c0,0.1,0,0.2,0,0.3c-0.1,0.3-0.2,0.5-0.3,0.7c-0.1,0.2-0.3,0.3-0.3,0.3s-0.1-0.2-0.1-0.4c0-0.2,0-0.5,0-0.8c0-0.1,0.1-0.2,0.1-0.3
			l-0.5-0.1c0,0.1,0,0.3,0,0.4c-0.1,0.3-0.2,0.5-0.3,0.7c-0.1,0.2-0.3,0.3-0.3,0.3s-0.1-0.2-0.1-0.4c0-0.2,0-0.5,0-0.8
			c0-0.1,0.1-0.3,0.1-0.4l-0.5-0.1c0,0.1,0,0.3,0,0.4c-0.1,0.3-0.2,0.5-0.3,0.7c-0.1,0.2-0.3,0.3-0.3,0.3s-0.1-0.2-0.1-0.4
			c0-0.2,0-0.5,0-0.8c0-0.2,0.1-0.3,0.1-0.4l-0.5-0.1c0,0.2,0,0.3,0,0.5c-0.1,0.3-0.2,0.5-0.3,0.7c-0.1,0.2-0.3,0.3-0.3,0.3
			s-0.1-0.2-0.1-0.4c0-0.2,0-0.5,0-0.8c0-0.2,0.1-0.3,0.2-0.5l-0.6-0.2c0,0.2,0,0.3,0,0.5c-0.1,0.3-0.2,0.5-0.3,0.7
			c-0.1,0.2-0.3,0.3-0.3,0.3s-0.1-0.2-0.1-0.4c0-0.2,0-0.5,0-0.8c0-0.2,0.1-0.3,0.2-0.5l-0.5-0.1c0,0.2,0,0.3,0,0.5
			c-0.1,0.3-0.2,0.5-0.3,0.7c-0.1,0.2-0.3,0.3-0.3,0.3S93,17.7,93,17.5c0-0.2,0-0.5,0-0.8c0-0.2,0.1-0.4,0.2-0.5L92.6,16
			c0,0.2,0,0.4,0,0.6c-0.1,0.3-0.2,0.5-0.3,0.7c-0.1,0.2-0.3,0.3-0.3,0.3s-0.1-0.2-0.1-0.4c0-0.2,0-0.5,0-0.8c0-0.2,0.1-0.4,0.2-0.6
			l-0.6-0.2c0,0.2,0,0.4,0,0.6c-0.1,0.3-0.2,0.5-0.3,0.7c-0.1,0.2-0.3,0.3-0.3,0.3s-0.1-0.2-0.1-0.4c0-0.2,0-0.5,0-0.8
			c0-0.2,0.1-0.4,0.2-0.6l-6-1.5l-0.8-0.9l-0.8-2.1l-1.7,0.5L80.3,13l0.7-1.2l1.1-2.4l-2.8,0.9l-1.1-3.7l-4.1,3.5l0,0l-2.5,3.5
			l0.5-4.2l1,1.2l1-0.7l0.4-10l-5.9,11.7l-0.9,1.7l-0.1-2.2l1,0.6l-2-2.6L65,11.9l-0.9-4.6l-5.2,8.2l-0.3,0.1l12.1,20.9l-0.1,0.1
			l0.7,0.7l-2.2-0.7l0.7,1.3l-0.2,0.4l-1-1.8l-1.2-0.4l1.8,3.1L69,39.4L67,35.7l-1.4-0.5l2.9,5.1l-0.2,0.4L65,35.1l-1.4-0.4l4.1,7
			l-0.2,0.4l-4.4-7.6l-1.3-0.4l4.3,7.4l-0.3-1.1l5.1,5.8L65.9,45L61,69.2l4.4,0.1l1.6-7.1l0.7,6.4l1.2-3.2l0.9,3.1l6-1.5l13.1,3.9
			L85,45.3l-5.5,1.3l4.3-5.2l-0.2,2.6l1.6-0.4l17.9-4.5l0,0l2.2-0.6l-1.7-2.2l4.2,2.7l-5.6,1.9l-3.6,6.8L88,51.5l-0.4-0.7l1.4,20
			l2.6,0.8l2.3-0.6l0.3,4l1.4-3.4l-2.9-8.1l4.2,6.3l2.5-2.8l9.1-23.9l1-17l-0.3,0l0.3-0.1L109.7,23.5z M80.9,53.9l0.8,2.3l0.9-7.4
			c0,0.4,0.1,0.7,0.2,1.1L83,51l0.3,2.2l0.3,2.2l0.3,2.2c0.4,2.9,0.8,5.8,1.2,8.7l0.4,2.8l-0.9-2.7c-0.7-2-1.4-4.1-2.1-6.1l-0.9-2.8
			l-0.7,5.3c-0.1-1.4-0.2-2.9-0.2-4.3l-0.1-2.2L80.5,54l-0.1-1.4L80.9,53.9z M73,35.2c0,0,0.2-0.1,0.6-0.2c0.4-0.1,0.9-0.1,1.4-0.1
			c0.5,0,1,0,1.4,0.1c0.4,0.1,0.6,0.2,0.6,0.2s-0.2,0.1-0.6,0.2c-0.4,0.1-0.9,0.1-1.4,0.1c-0.5,0-1,0-1.4-0.1
			C73.2,35.3,73,35.2,73,35.2z M76.7,54.7l-0.4-3.9l-0.8,0.9l-0.4-2l-0.6,1.2l-0.4-2.6l3.4,2.5L76.7,54.7z M77.5,33
			c-0.3,0-0.8,0.1-1.2,0.1c-0.2,0-0.4,0-0.7,0c-0.2,0-0.5,0-0.7,0c-0.2,0-0.5,0-0.7,0c-0.2,0-0.5,0-0.7,0c-0.4,0-0.8-0.1-1.2-0.1
			c-0.7-0.1-1.2-0.2-1.2-0.2s0.5-0.1,1.2-0.2c0.3,0,0.8-0.1,1.2-0.1c0.2,0,0.4,0,0.7,0c0.2,0,0.5,0,0.7,0c0.2,0,0.5,0,0.7,0
			c0.2,0,0.5,0,0.7,0c0.4,0,0.8,0.1,1.2,0.1c0.7,0.1,1.2,0.2,1.2,0.2S78.2,32.9,77.5,33z M70.8,17.9l1.4,4l-7.6-7.9l18.2,0.2
			l-5.3,0.4l2.4,13.2L70.8,17.9z M80.6,37.1l3.2-3l18.8-4L80.6,37.1z M94.8,50.7c-0.3,0.1-0.6,0.2-0.9,0.3c-0.3,0.1-0.6,0.2-0.9,0.3
			c-0.3,0.1-0.6,0.2-0.9,0.3c-0.6,0.2-1.1,0.3-1.6,0.4c-0.9,0.2-1.5,0.3-1.5,0.3s0.6-0.3,1.4-0.7c0.4-0.2,0.9-0.4,1.5-0.6
			c0.3-0.1,0.6-0.2,0.9-0.3c0.3-0.1,0.6-0.2,0.9-0.3c0.3-0.1,0.6-0.2,0.9-0.3c0.3-0.1,0.6-0.2,0.9-0.3c0.6-0.2,1.1-0.3,1.6-0.4
			c0.9-0.2,1.5-0.3,1.5-0.3s-0.6,0.3-1.4,0.7c-0.4,0.2-0.9,0.4-1.5,0.6C95.4,50.5,95.1,50.6,94.8,50.7z M104.9,46.4
			c-0.2,0.6-0.5,1.5-0.9,2.5c-0.4,1-0.8,2.2-1.4,3.5c-0.3,0.6-0.5,1.3-0.8,2c-0.3,0.7-0.6,1.3-0.8,2c-0.3,0.7-0.6,1.4-0.8,2
			c-0.3,0.7-0.6,1.3-0.8,2c-0.5,1.3-1.1,2.4-1.5,3.4c-0.5,1-0.9,1.8-1.1,2.4c-0.3,0.6-0.4,0.9-0.4,0.9s0.1-0.3,0.3-1
			c0.2-0.6,0.5-1.5,0.9-2.5c0.4-1,0.8-2.2,1.4-3.5c0.3-0.6,0.5-1.3,0.8-2c0.3-0.7,0.6-1.3,0.8-2c0.3-0.7,0.6-1.4,0.8-2
			c0.3-0.7,0.6-1.3,0.8-2c0.5-1.3,1.1-2.4,1.5-3.4c0.5-1,0.9-1.8,1.1-2.4c0.3-0.6,0.4-0.9,0.4-0.9S105.1,45.8,104.9,46.4z"/>
	</g>
	<g>
		<polygon class="st0" points="55,45.8 55.7,45.9 55.2,43.4 53.4,43.1 		"/>
	</g>
	<g>
		<polygon class="st0" points="96,43.4 95.4,45.9 96.2,45.8 97.7,43.1 		"/>
	</g>
</g>
<g>
	<polygon class="st0" points="131.4,37.9 135.4,36.9 138.7,26.7 136.5,25.1 134.3,27.7 134.6,28 	"/>
</g>
</svg>
