<?xml version="1.0" encoding="utf-8"?>
<!-- Generator: Adobe Illustrator 23.1.1, SVG Export Plug-In . SVG Version: 6.00 Build 0)  -->
<svg version="1.1" id="Capa_1" xmlns="http://www.w3.org/2000/svg" xmlns:xlink="http://www.w3.org/1999/xlink" x="0px" y="0px"
	 viewBox="0 0 150 152" style="enable-background:new 0 0 150 152;" xml:space="preserve">
<style type="text/css">
	.st0{fill:#E52521;}
	.st1{fill:#6C3131;}
	.st2{fill:#B05353;}
	.st3{fill:#020203;}
	.st4{fill:#FFFFFF;}
</style>
<g>
	<g>
		<path class="st0" d="M121.9,42.1c-0.3-2.5-0.8-5-1.6-7.4c-0.8-2.4-1.7-4.7-2.7-6.8c-2.1-4.2-4.8-7.8-7.4-10.6
			c-2.6-2.7-5.2-4.6-7.1-5.7c-0.9-0.6-1.8-0.9-2.3-1.1c-0.6-0.2-0.9-0.2-1-0.1c-0.1,0.1,0.1,0.4,0.5,0.8c0.4,0.4,1.1,0.9,1.9,1.6
			c1.7,1.3,3.9,3.3,6.4,6c2.4,2.7,4.9,6.1,7,10.1c1,2,1.9,4.2,2.7,6.4c0.7,2.3,1.3,4.6,1.7,7c0.3,2.4,0.5,4.8,0.5,7.2
			c-0.1,2.4-0.3,4.7-0.7,7c-0.8,4.5-2.3,8.5-3.8,11.8c-1.6,3.3-3.3,5.9-4.7,7.5c-0.6,0.9-1.2,1.5-1.6,1.9c-0.4,0.4-0.6,0.7-0.6,0.7
			s0.2-0.2,0.6-0.6c0.4-0.4,1-1,1.7-1.8c1.4-1.6,3.3-4.1,5.1-7.3c1.8-3.3,3.5-7.3,4.5-11.9c0.5-2.3,0.8-4.7,1-7.2
			C122.2,47.2,122.2,44.6,121.9,42.1z"/>
		<path class="st0" d="M38.5,86.4c-0.2-0.3-0.4-0.6-0.7-0.9c-0.2-0.3-0.5-0.6-0.7-1c-0.2-0.4-0.5-0.7-0.8-1.1
			c-1.1-1.6-2.2-3.5-3.4-5.6c-1.1-2.1-2.1-4.4-3-6.7c-0.9-2.4-1.6-4.8-2.2-7c-0.5-2.3-1-4.4-1.3-6.3c-0.6-3.7-0.9-6.2-1.7-6.2
			c-0.5,0-0.9,2.6-0.5,6.5c0.2,2,0.6,4.2,1.3,6.6c0.7,2.4,1.5,4.8,2.6,7.2c1.1,2.4,2.3,4.6,3.7,6.7c1.3,2,2.7,3.8,4,5.3
			c0.3,0.4,0.6,0.7,0.9,1.1c0.3,0.3,0.6,0.6,0.9,0.9c0.3,0.3,0.5,0.6,0.8,0.8c0.2,0.2,0.5,0.5,0.7,0.6c0.8,0.8,1.3,1.2,1.3,1.2
			s-0.4-0.5-1.1-1.4C38.9,86.9,38.7,86.7,38.5,86.4z"/>
		<path class="st0" d="M56,5.5c0.5-0.2,1.1-0.5,1.7-0.6c0.6-0.2,1.2-0.4,1.8-0.6c0.3-0.1,0.6-0.2,0.9-0.3c0.3-0.1,0.7-0.2,1-0.3
			c0.7-0.2,1.3-0.4,2-0.5c2.8-0.6,5.8-1,8.8-1.2c3-0.1,6.1,0.1,9,0.5c0.7,0.1,1.4,0.3,2.1,0.4c0.3,0.1,0.7,0.1,1,0.2
			c0.3,0.1,0.7,0.2,1,0.2c0.6,0.2,1.3,0.3,1.9,0.5c0.6,0.2,1.2,0.4,1.7,0.6c0.5,0.2,1.1,0.4,1.6,0.5c0.5,0.2,0.9,0.4,1.4,0.6
			c0.4,0.2,0.8,0.4,1.2,0.5c0.4,0.2,0.7,0.4,1,0.5c1.2,0.6,1.9,1,1.9,1S95.3,7,94.1,6.2c-0.3-0.2-0.6-0.4-1-0.6
			C92.8,5.5,92.4,5.2,92,5c-0.4-0.2-0.9-0.5-1.3-0.7c-0.5-0.2-1-0.4-1.5-0.7c-0.5-0.2-1.1-0.5-1.7-0.7c-0.6-0.2-1.2-0.4-1.9-0.7
			c-0.3-0.1-0.6-0.2-1-0.3c-0.3-0.1-0.7-0.2-1-0.3c-0.7-0.2-1.4-0.4-2.1-0.6c-2.9-0.6-6.1-1-9.2-1.1c-3.2,0-6.4,0.3-9.3,0.9
			c-0.7,0.2-1.4,0.4-2.1,0.5c-0.3,0.1-0.7,0.2-1,0.3c-0.3,0.1-0.7,0.2-1,0.3c-0.6,0.2-1.3,0.5-1.9,0.7c-0.6,0.2-1.2,0.5-1.7,0.8
			c-0.5,0.3-1.1,0.5-1.6,0.7c-0.5,0.3-0.9,0.5-1.3,0.8c-0.4,0.3-0.8,0.5-1.2,0.7c-0.3,0.2-0.6,0.5-0.9,0.7c-1.1,0.9-1.6,1.5-1.4,1.8
			C49.1,8.8,51.8,7.2,56,5.5z"/>
		<path class="st0" d="M113.7,67.3c0.1-0.1,0.1-0.2,0.2-0.3c0.4-0.9,0.9-1.8,1.2-2.7c0.4-0.9,0.7-1.9,1.1-2.9c0.3-1,0.6-2,0.9-3
			c0.5-2.1,0.9-4.2,1-6.3c0.2-2.1,0.2-4.3,0-6.4c-0.2-2.1-0.5-4.1-0.9-6.1c-0.4-2-1-3.8-1.6-5.5c-0.3-0.8-0.6-1.7-1-2.5
			c-0.2-0.4-0.4-0.8-0.5-1.1c-0.2-0.4-0.4-0.7-0.6-1.1c-1.5-2.8-3-5-4.1-6.4c-0.6-0.7-1-1.3-1.4-1.6c-0.3-0.4-0.5-0.6-0.5-0.6
			s0.2,0.2,0.5,0.6c0.3,0.4,0.7,1,1.2,1.7c1,1.5,2.4,3.8,3.7,6.6c0.2,0.4,0.3,0.7,0.5,1.1c0.1,0.4,0.3,0.8,0.4,1.2
			c0.3,0.8,0.6,1.6,0.8,2.5c0.5,1.7,1,3.5,1.3,5.4c0.3,1.9,0.5,3.9,0.6,5.9c0,2-0.1,4.1-0.3,6.1c-0.2,1.7-0.5,3.4-1,5.1
			c0.4-2.5,0.7-5,0.7-7.6c0-24.1-19.5-43.6-43.6-43.6c-4.9,0-9.5,0.8-13.9,2.3c0.2-0.1,0.3-0.1,0.5-0.2c1.7-0.6,3.4-1.1,5.1-1.5
			c1.7-0.4,3.4-0.7,5.1-0.8c3.3-0.3,6.4-0.3,9.1,0c2.7,0.2,4.8,0.6,6.4,0.9c0.8,0.1,1.4,0.2,1.9,0.2c0.4,0,0.7-0.1,0.8-0.2
			c0-0.1-0.1-0.3-0.5-0.6c-0.4-0.2-0.9-0.5-1.7-0.8c-1.5-0.6-3.8-1.3-6.6-1.6c-2.8-0.4-6.1-0.5-9.6-0.1c-1.7,0.2-3.5,0.6-5.3,1
			c-1.8,0.5-3.6,1.1-5.3,1.8c-1.7,0.7-3.4,1.6-5,2.5c-1.6,1-3,2-4.4,3.1C46.9,13,45.4,14.5,44,16c-1.9,1.6-3.7,3.4-5.3,5.3
			c1-1.7,1.9-3.1,2.6-4.3c0.5-0.9,0.9-1.5,1.2-2.1c0.2-0.5,0.3-0.8,0.2-1c-0.1-0.1-0.4,0.1-0.8,0.4c-0.4,0.4-1,0.9-1.7,1.7
			c-1.4,1.5-3.1,3.9-4.9,7c-1.7,3.1-3.4,6.9-4.7,11.1c-0.6,2.1-1.1,4.3-1.6,6.6c-0.4,2.3-0.6,4.6-0.7,7c-0.1,2.4,0,4.7,0.1,7
			c0.2,2.3,0.5,4.6,1,6.7c0.9,4.3,2.2,8.2,3.6,11.4c1.4,3.2,2.8,5.7,3.9,7.5c0.5,0.9,1,1.5,1.3,2c0.3,0.4,0.5,0.7,0.5,0.7
			s-0.1-0.3-0.4-0.7c-0.3-0.5-0.7-1.1-1.2-2c-1-1.8-2.2-4.4-3.4-7.6c-0.9-2.4-1.7-5.1-2.3-8c6.2,16.5,22.1,28.3,40.8,28.3
			c6.8,0,13.3-1.6,19.1-4.4c-0.1,0.1-0.3,0.2-0.4,0.2c-0.6,0.4-1.1,0.7-1.5,0.9c-0.9,0.5-1.4,0.7-1.4,0.7s0.5-0.2,1.5-0.6
			c0.5-0.2,1-0.4,1.7-0.7c0.3-0.1,0.7-0.3,1-0.4c0.4-0.2,0.7-0.4,1.1-0.5c1.6-0.7,3.3-1.8,5.1-2.9c1.8-1.2,3.6-2.6,5.4-4.1
			c1.7-1.5,3.3-3.2,4.7-4.9c1.4-1.7,2.6-3.3,3.4-4.9C112.8,69.7,113.4,68.3,113.7,67.3z"/>
	</g>
	<path class="st1" d="M146.4,59c0,0,2.7-0.8,2.7-2.2c0-1.4-2.1-4-3-5.4c-1-1.4-4.3-3-4.3-3S141,47.1,140,47c-1-0.2-3.3-0.2-3.3-0.2
		s-9.2-3.5-13.1-3.4c-4,0.2-8.3,3.6-8.3,3.6s-7.5-1.5-10.4,0.9c0.8-1.1-1.7-6.2-4.9-6.7C96.8,40.8,86.1,43,86.1,43s0.5-2.1-2.2-2.4
		c-2.7-0.3-7.6,0.8-7.6,0.8s-5.2-8.5-7.6-8.8c-2.4-0.3-7.6,5.5-7.6,5.5L53.7,36c0,0-6.5-2.7-9.4-1.9c-0.6-0.2-12.2-4.6-14.5-4.8
		c-2.2-0.2-8.6,1-8.6,1s-4.8-1.9-6.4-1.4c-1.6,0.5-4.6,2.5-4.6,2.5s-1.4-0.3-2.5,0.8c-1.1,1.1-3,6-3,6L0,42l2.5,3l4.6-3.5
		c0,0,1,2.5,3.2,1.7c2.2-0.8,6-4.6,6-4.6s3.5-0.3,5.4,0C23.7,39,25,41.4,28,42c3,0.6,6.7-0.6,6.7-0.6s0.8,6.7,13,8.3
		c0.2,0.6-0.6,10,2.1,14.1c-0.5,0.5,2.4,8.3,7.6,10.6c0,0-1.6,2.4,1.9,3.5c0.2,0.8-3.6,9.3,3.7,11.6c-5.1,5.5-12.8,6.4-19.6,8.3
		c-6.8,1.9-13.7,5.6-14.5,8.1s-1.9,5.2-2.4,6.5c-0.5,1.3-0.6,5.4,0.8,7.3c1.4,1.9,4.8,1.4,4.8,1.4s3.8,1.7,9.1,2.1
		c5.2,0.3,6.8-1,8.9-2.1c2.1-1.1,7.8-2.9,7.8-2.9l2.4-1.7c0,0,11.6,13.3,13.5,12.9c1.9-0.5,2.2-2.2,1.7-4s-9.2-12.2-9.2-12.2
		s6.8,0.6,9.2-0.6c0.6,0.2,7,2.4,10.3,1.4c-0.6,0.8-3.8,3-4.1,4.9c-0.3,1.9,2.5,5.9,2.5,5.9s-2.5,26.4-0.5,26.9c2.1,0.5,6-2.5,7-5.2
		c0.6-1.7-0.3-6.9-1-10.4c-0.5-2.3-0.2-4.6,0.7-6.7c0,0,4.6-2.6,7.3-3.4c1.9-0.5,3.6-1.3,5.1-2.3c0.9-0.9,2.8-2.8,4.1-4.6
		c1.7-2.4,3.3-7.2,3.3-7.2s5.6-7.2,6.2-10.8c0.6-3.7,0.5-8.1-1.6-10c-2.1-1.9-4.9-1.1-4.9-1.1s-3-3-5.6-3.3
		c-2.5-0.3-6.4,0.8-6.4,0.8l-8.6,0.8c0,0,2.9-2.5,3-4.1c0.2-1.6,2.9-2.4,2.7-5.1c-0.2-2.7,0.5-4,0.5-4s3.7-7,3.8-7.6
		c0.2-0.6,2.5-4.3,2.5-4.3s7.9-1,11.9-4.6c1.9-0.8,7.3-0.8,10.5-3c1.3-0.3,7.3-2.4,7.3-2.4l5.6,1.9c0,0,2.2,4.8,3.2,5.4
		c1,0.6,2.7,0.3,2.7,0.3l4.4,4.6l2.4-1.7L146.4,59z"/>
	<g>
		<path class="st2" d="M110,89.9c0,0-3-3-5.6-3.3c-2.5-0.3-6.4,0.8-6.4,0.8l-8.6,0.8c0,0,0.3-0.2,0.6-0.6c-0.5,0.2-1,0.5-1.5,0.8
			c-0.4,0.3-0.7,0.6-1,0.9c-0.2,0.2,0.1,0.5,0.3,0.3c0.1-0.1,0.2-0.2,0.3-0.3c-0.1,0.2,0.1,0.4,0.3,0.3c1.1-0.8,2.5-0.8,3.8-0.7
			c1.4,0.1,2.7,0.4,4.1,0.4c1.6-0.1,3.2-0.5,4.8-0.6c1.5-0.1,3,0.1,4.5,0.6c2.4,0.7,5,2.4,5.5,5.1c0.1,0.6,0.1,1.2-0.1,1.8
			c-0.2,0.7-0.6,1.2-0.9,1.8c-0.2,0.6-0.3,1.2,0,1.8c0.3,0.7,0.8,1.2,1.1,1.8c0.8,1.4,1.6,2.9,1.6,4.5c0.1,1.5-0.4,3-1.4,4
			c-0.1,0.1-0.1,0.2,0,0.2c1.7-2.3,4.6-6.7,5.1-9.3c0.6-3.7,0.5-8.1-1.6-10C112.8,89.1,110,89.9,110,89.9z"/>
		<path class="st2" d="M68.9,89.7c-2.5-1.5-6.6-3.8-3.9-11.6c0-0.1-9.3-5-9.3-4.7c0.5,0.4,1.1,0.8,1.7,1c0,0-1.6,2.4,1.9,3.5
			c0.2,0.8-3.6,9.3,3.7,11.6c-5.1,5.5-12.8,6.4-19.6,8.3c-6.8,1.9-13.3,6.2-14.1,8.8s-2.5,2.6-2.7,5.9c-0.1,1.4-0.6,5.4,0.8,7.3
			c1.4,1.9,4.8,1.4,4.8,1.4s0.6,0.3,1.6,0.6c-1.2-0.6-2.4-1.4-3.2-2.4c-0.5-0.6-0.9-1.4-1.1-2.2c-0.2-1,0-2.1,0.4-3
			c0.3-1.1,0.8-2.1,1-3.2c0.1,0.4,0.3,0.8,0.6,1.2c0.7,1.1,1.8,1.9,3.1,2.1c0.3,0,0.6,0,1,0c0.3,0,0.3-0.5,0-0.4
			c-1.3,0.2-2.5-0.5-3.4-1.5c-0.9-1.1-1.3-2.4-1.1-3.8c0.5-3,3.1-5,5.7-6.1c1.5-0.6,3.2-1,4.8-1.4c1.7-0.4,3.5-0.9,5.2-1.4
			c1.7-0.5,3.4-1.1,5.1-1.7c1.4-0.5,2.7-1,4.1-1.6c2.5-1.1,4.9-2.7,6.5-5c0.1-0.1,0.2-0.2,0.2-0.3c0.1,0.1,0.3,0.1,0.4,0.2
			c1.1,0.5,2.2,1,3.3,1.5c2.5,1.1,5,2.3,7.4,3.4c0.1,0.1,1.6,0.5,1.5,0.3C74.9,93.5,71.2,91.1,68.9,89.7z"/>
		<path class="st2" d="M123.5,43.4c-4,0.2-8.3,3.6-8.3,3.6s-7.5-1.5-10.4,0.9c0.8-1.1-1.7-6.2-4.9-6.7C96.8,40.8,86.1,43,86.1,43
			s0.5-2.1-2.2-2.4c-2.7-0.3-7.6,0.8-7.6,0.8s-5.2-8.5-7.6-8.8c-2.4-0.3-7.6,5.5-7.6,5.5L53.7,36c0,0-6.5-2.7-9.4-1.9
			c-0.6-0.2-12.2-4.6-14.5-4.8c-1.5-0.1-5.1,0.4-7.1,0.7c0,0,0,0.1,0.1,0.1c0,0.1,0,0.3,0,0.4c-0.2-0.2-0.4,0.2-0.2,0.4c0,0,0,0,0,0
			c-0.1,0.1-0.2,0.1-0.3,0c-0.2-0.1-0.5,0.3-0.2,0.4c0.3,0.1,0.7,0.1,0.9-0.2c1.8,1.1,4,0.7,6.1,0.4c1.3-0.2,2.7-0.4,4-0.2
			c1.2,0.2,2.3,0.7,3.4,1.2c2.2,1.1,4.3,2.5,6.7,3c1.4,0.3,2.8,0.4,4.2,0.6c1.4,0.3,2.7,0.7,4,1.3c2.7,1.3,5.2,3.1,7.5,4.9
			c0.1,0.1,0.2,0,0.3,0c2.2-2.2,5.4-5.1,8.9-4.6c2.9,0.4,4.3,3.2,5.9,5.3c0.9,1.1,1.9,2.1,3.2,2.5c0.1,0,0.2,0,0.3-0.1
			c0.3-1.3,1.8-1.7,2.9-1.5c1.5,0.1,2.7,1.1,4.1,1.6c0.7,0.3,1.5,0.5,2.2,0.4c0.7-0.1,1.3-0.4,1.9-0.6c0.6-0.3,1.4-0.7,2.2-0.6
			c0.9,0.2,1.1,1.1,1.4,1.7c1.2,2.3,4.2,1.6,6.3,1.7c0.7,0,1.4,0.2,2.1,0.5c0.7,0.3,1.3,0.8,1.9,1.2c1.1,0.7,2.3,0.9,3.6,0.6
			c1.4-0.4,2.6-1.1,3.8-1.7c0.7-0.3,1.4-0.5,2.1-0.5c0.9,0,1.7,0.3,2.5,0.5c0.8,0.2,1.5,0.4,2.3,0.3c0.8-0.1,1.5-0.4,2.2-0.7
			c0.8-0.4,1.7-0.7,2.6-0.9c0.9-0.2,1.8-0.2,2.7-0.2c3.1,0,6.3,0.6,9.2-0.8c0.3-0.2,0.7-0.4,0.9-0.6
			C131.4,44.9,126.2,43.3,123.5,43.4z"/>
		<path class="st2" d="M101.9,103.8c-1,0.7-2.4,1.2-3.5,0.4c-0.8-0.5-1.2-1.8-0.5-2.6c0.1-0.1,0.1-0.3,0-0.3
			c-1.8-0.9-3.7,0.8-4.3,2.4c-0.4,1-0.6,2.1-1,3.2c-0.2,0.5-0.4,1-0.7,1.4c-0.3,0.4-0.7,0.8-1,1.2c-0.3,0.5-0.4,1-0.4,1.5
			c0,0.6-0.1,1.1-0.6,1.5c-0.5,0.3-1,0.6-1.5,0.8c-0.5,0.3-1.1,0.5-1.6,0.8c-1.9,1-3.8,2.5-4.3,4.7c-0.2,1.2,0.1,2.2,0.6,3.3
			c0.4,0.9,1,1.8,1.2,2.8c0,0,0,0,0,0c-0.2,1.8-2.5,26.3-0.5,26.7c0.3,0.1,0.6,0.1,0.9,0c0-0.1,0-0.1,0.1-0.2
			c0.2-0.9,0.3-1.9,0.3-2.9c0.1-1.1,0.1-2.1,0.1-3.2c-0.1-2.1-0.3-4.2-0.7-6.2c-0.2-1-0.4-2.1-0.5-3.1c-0.1-1-0.1-2.1,0-3.1
			c0.1-2.1,0.4-4.2,0.4-6.3c0-0.5,0-0.9-0.1-1.4c0,0,0,0,0,0c0,0,0.1,0,0.1,0c0,0,0,0.1,0,0.1c0,0.3,0.5,0.3,0.4,0
			c0-0.1,0-0.3-0.1-0.4c0.1,0.2,0.5,0,0.3-0.2c-1.1-2.2,0.3-4.7,2-6c1.9-1.5,4.4-2.3,6.4-3.7c1-0.7,1.8-1.5,2.4-2.5
			c0.1-0.1,0.2-0.2,0.2-0.4c0-0.2-0.3-0.4-0.4-0.2c-0.1,0.1-0.1,0.2-0.2,0.3c-0.2,0.2-0.5,0.2-0.7,0.1c-0.5-0.1-0.6-0.7-0.6-1.2
			c0.1-0.9,0.7-1.7,1.3-2.3c1.2-1.3,2.9-2,4.3-3c0.8-0.5,1.6-1.2,2.2-1.9C102.3,103.9,102.1,103.6,101.9,103.8z"/>
	</g>
	<g>
		<path class="st3" d="M71.4,21.4c2-1.4,3-3.6,2-5s-3.3-1.3-5.4,0.1c-2,1.4-3,3.6-2,5S69.4,22.8,71.4,21.4z"/>
		<path class="st3" d="M78.1,14.7c1.4-1,2-2.5,1.4-3.4c-0.6-0.9-2.3-0.9-3.7,0.1c-1.4,1-2,2.5-1.4,3.4
			C75.1,15.7,76.7,15.6,78.1,14.7z"/>
		<path class="st3" d="M112.2,14.4c1.4-1,2-2.5,1.4-3.4c-0.6-0.9-2.3-0.9-3.7,0.1c-1.4,1-2,2.5-1.4,3.4
			C109.2,15.4,110.8,15.4,112.2,14.4z"/>
		<path class="st3" d="M117.6,64.3c-1.4,1-2,2.5-1.4,3.4c0.6,0.9,2.3,0.9,3.7-0.1c1.4-1,2-2.5,1.4-3.4
			C120.6,63.3,119,63.3,117.6,64.3z"/>
		<path class="st3" d="M113.2,41.5c1.4-1,2-2.5,1.4-3.4c-0.6-0.9-2.3-0.9-3.7,0.1c-1.4,1-2,2.5-1.4,3.4
			C110.2,42.5,111.8,42.4,113.2,41.5z"/>
		<ellipse transform="matrix(0.825 -0.5651 0.5651 0.825 -7.5922 30.5965)" class="st3" cx="45.6" cy="27.6" rx="3.1" ry="2"/>
		<path class="st3" d="M78,19.4c0.4,0.6,1.5,0.6,2.4,0c0.9-0.6,1.3-1.6,0.9-2.2c-0.4-0.6-1.5-0.6-2.4,0C78,17.8,77.6,18.8,78,19.4z"
			/>
		<path class="st3" d="M102.8,28c0.9-0.6,1.3-1.6,0.9-2.2c-0.4-0.6-1.5-0.6-2.4,0s-1.3,1.6-0.9,2.2C100.8,28.7,101.9,28.6,102.8,28z
			"/>
		<path class="st3" d="M107,24.9c0.7-0.5,1-1.1,0.8-1.4c-0.2-0.3-1-0.2-1.6,0.2c-0.7,0.5-1,1.1-0.8,1.4
			C105.6,25.4,106.3,25.3,107,24.9z"/>
		<path class="st3" d="M62.2,17.7c0.7-0.5,1-1.1,0.8-1.4c-0.2-0.3-1-0.2-1.6,0.2c-0.7,0.5-1,1.1-0.8,1.4
			C60.8,18.3,61.5,18.2,62.2,17.7z"/>
		<path class="st3" d="M93.1,27.3c0.7-0.5,1-1.1,0.8-1.4c-0.2-0.3-1-0.2-1.6,0.2s-1,1.1-0.8,1.4C91.8,27.8,92.5,27.7,93.1,27.3z"/>
		<path class="st3" d="M53.4,27.2c-0.7,0.5-1,1.1-0.8,1.4c0.2,0.3,1,0.2,1.6-0.2s1-1.1,0.8-1.4C54.8,26.7,54.1,26.8,53.4,27.2z"/>
		<path class="st3" d="M110.7,64.2c0.7-0.5,1-1.1,0.8-1.4c-0.2-0.3-1-0.2-1.6,0.2c-0.7,0.5-1,1.1-0.8,1.4
			C109.3,64.7,110,64.7,110.7,64.2z"/>
		<path class="st3" d="M66,98.8c-0.1-0.2-0.2-0.4-0.4-0.5C65.7,98.5,65.8,98.6,66,98.8z"/>
		<path class="st3" d="M84.8,126.1c0.3,0.1,0.5-0.1,0.7-0.3c0.1-0.2,0.1-0.4,0.1-0.5c0-0.1-0.1-0.1-0.2-0.2c-0.4-0.6-0.9-1.3-1.4-2
			c-0.5-0.8-0.9-1.7-1.1-2.7c-0.2-1,0-2,0.5-2.8c0.1-0.2,0.3-0.4,0.5-0.6c0.2-0.2,0.4-0.4,0.6-0.5c0.4-0.3,0.9-0.6,1.5-0.9
			c1.1-0.5,2.2-0.8,3.4-1.1c1.1-0.3,2.3-0.5,3.4-0.8c1.1-0.3,2.1-0.7,3-1.2c0.9-0.5,1.6-1.2,2.1-1.8c-0.7,0.5-1.5,0.9-2.4,1.2
			c-0.9,0.3-1.9,0.5-2.9,0.7c-0.3,0-0.5,0.1-0.8,0.1c-0.1-1.4,0.5-2.8,1.3-3.9c0.6-0.3,1.2-0.6,1.8-0.9c1.9-0.8,3.8-1.6,5.5-2.6
			c1.6-0.9,2.9-2.1,3.7-3.3c-1.1,0.8-2.6,1.6-4.2,2.2c-1.2,0.5-2.5,0.9-3.8,1.5c-0.5-0.6-0.8-1.4-0.8-2.2c0-0.2,0-0.4,0-0.6
			c0.3-0.3,0.7-0.6,1.1-0.9c0.6-0.4,1.3-0.8,1.9-1.2c0.7-0.4,1.3-0.8,1.9-1.2c1.2-0.8,2.2-1.5,3-2.2c-1,0.3-2.2,0.7-3.5,1.2
			c-0.7,0.3-1.3,0.6-2,0.9c-0.4,0.2-0.8,0.4-1.3,0.7c0,0,0.1-0.1,0.1-0.1c-0.8,0.3-1.7,0.6-2.6,0.7c3.5-3,7.1-5.3,9.7-7
			c-1.5,0.4-3.3,1.1-5.2,2.1c-1.3,0.7-2.6,1.5-3.8,2.4c0.1-0.1,0.2-0.2,0.2-0.3c1.4-1.5,2.7-2.9,4-4.1c1.3-1.2,2.5-2.2,3.7-3.2
			c-1.4,0-3.2,0.4-4.9,1.3c-1.6,0.8-3.2,1.9-4.6,3.4c0.4-0.7,0.8-1.4,1.1-2c1.1-1.9,2.3-3.4,3.7-4.6c-0.9,0.1-1.8,0.5-2.8,1
			c-0.9,0.5-1.9,1.3-2.7,2.2c-0.7,0.8-1.4,1.6-2.1,2.5c0.7-1.8,1.3-3.5,1.8-5c-1.3,0.9-2.6,2.4-3.8,4c-1.2,1.7-2.4,3.6-3.6,5.4
			c-0.2,0.3-0.4,0.5-0.6,0.8c-3.9,1.6-8.7,1.2-12.3-1.1c-0.4-0.3-0.7-0.6-1-0.9c-0.1-0.3-0.3-0.5-0.6-0.6c-0.4-0.4-0.7-0.8-1.1-1.2
			c-0.7-0.8-1.3-1.7-1.9-2.6c-0.3-0.5-0.7-1-1-1.5c0.1,0.1,0.2,0.1,0.3,0.2c0.8,0.6,1.6,1.2,2.5,1.8c0.9,0.6,1.8,1.2,2.7,1.6
			c1,0.4,2,0.7,2.9,0.8c1,0.1,1.9,0,2.7-0.2c0.8-0.2,1.5-0.7,2-1.1c-0.6,0.3-1.3,0.5-2.1,0.5c-0.5,0-1,0-1.6-0.1
			c-0.3-0.7-0.8-1.4-1.3-2.1c-0.6-0.7-1.4-1.4-2.2-2.1c-1.7-1.3-3.6-2.5-5.1-4.2c-0.9-1-1.5-2.2-1.8-3.5c0.7,0.3,1.5,0.5,2.3,0.7
			c2.2,0.6,4.8,0.9,7.5,0.7c2.7-0.2,5.2-1,7.3-2c2.1-1.1,3.7-2.4,4.8-3.7c-1.3,1.1-3,2.3-5,3.2c-2.1,0.9-4.5,1.6-7.1,1.8
			c-2.6,0.2-5.1,0-7.3-0.5c-0.9-0.2-1.7-0.4-2.5-0.6c-0.1-0.6-0.2-1.3-0.2-1.9c0-1,0.3-2,0.6-2.9c1.7,0.5,3.5,0.8,5.5,0.8
			c4.3,0,8-1.1,10.4-2.2c-2.7,0.2-6.3,0.7-10.4,0.6c-1.8,0-3.5-0.2-5.1-0.4c0.1-0.2,0.2-0.5,0.3-0.7c2,0.3,4.1,0.3,6.4-0.1
			c2.4-0.4,4.6-1.2,6.4-2.1c1.8-0.9,3.3-2.1,4.4-3.1c-1.4,0.7-3,1.4-4.9,2.1c-1.9,0.7-4,1.2-6.2,1.6c-2.3,0.4-4.4,0.5-6.4,0.4
			c-2,0-3.8-0.2-5.3-0.4c1.4,0.7,3.1,1.3,5.2,1.6c0.1,0,0.1,0,0.2,0c-0.2,0.2-0.3,0.4-0.5,0.7c0,0-0.1,0-0.1,0
			c-1.7-0.3-3.3-0.6-4.6-1c1,0.7,2.4,1.5,4.1,2c0,0,0,0,0,0.1c-0.5,0.8-0.9,1.8-1.1,2.9c-0.1,0.5-0.1,1-0.1,1.6
			c-0.7-0.2-1.3-0.4-1.9-0.6c0.6,0.3,1.2,0.6,1.9,0.9c0,0.6,0.1,1.1,0.3,1.7c0.2,0.6,0.4,1.2,0.7,1.8c0.2,0.3,0.3,0.6,0.5,0.8
			c0.2,0.3,0.4,0.5,0.6,0.8c0.9,1,1.9,1.8,2.8,2.4c1,0.7,1.9,1.2,2.8,1.7c0.9,0.5,1.7,1.1,2.4,1.6c0.7,0.5,1.2,1.1,1.7,1.6
			c-0.3,0-0.5-0.1-0.8-0.2c-0.8-0.2-1.7-0.6-2.5-1c-0.8-0.5-1.6-1-2.5-1.6c-0.9-0.6-1.7-1.2-2.6-1.7c-0.9-0.5-1.8-1-2.6-1.3
			c-0.3-0.1-0.5-0.2-0.8-0.4c-0.1-0.1-0.3-0.2-0.4-0.3c-0.3-0.2-0.7-0.4-1-0.6c-0.5-0.6-1.1-1.2-1.6-1.8c-0.3-0.4-0.5-0.8-0.6-1.2
			c-0.1-0.4-0.1-1-0.1-1.6c0-1.2,0-2.3,0-3.3c0-0.7,0.1-1.4,0.2-2.1c0.1,0,0.3,0.1,0.4,0.1c0.6,0.1,1.2,0.1,1.7-0.1
			c-0.7-0.7-1.9-1.3-2.8-2c-0.7-0.6-1.3-1.2-1.7-1.9c0.1,0,0.2,0.1,0.2,0.1c-0.1-0.1-0.2-0.2-0.4-0.3c-0.1-0.1-0.1-0.2-0.1-0.3
			c0,0-0.1,0.1-0.1,0.1c-14.8-13-4-33.7,1.5-36.7c0.9,0.2,1.7,0.3,2.5,0.5c-1.8-1.2-4.7-2.5-8-3.3c-3.3-0.8-6.3-0.9-8.5-0.7
			c-1.3-0.6-2.7-1.3-4.3-2.1c-1.7-0.8-3.6-1.7-5.7-2.4c-2.1-0.7-4.3-0.9-6.3-0.7c-1.3,0.1-2.5,0.5-3.5,1c-1.9,0.3-3.6,0.6-3.6,0.6
			s0,0-0.1,0c9-7.3,35.3-28.6,36.9-29.3c-9.1,0.8-34,21.9-41.1,28c-0.8-0.2-1.6-0.2-2.1-0.1c-1.6,0.5-4.6,2.5-4.6,2.5
			s-1.4-0.3-2.5,0.8c-1.1,1.1-3,6-3,6L0,42l2.5,3l4.6-3.5c0,0,1,2.5,3.2,1.7c2.2-0.8,6-4.6,6-4.6s2.9-0.3,4.8-0.1c0,0,0,0,0,0
			c0.2,0,0.4,0,0.6,0.1C23.7,39,25,41.4,28,42c3,0.6,6.7-0.6,6.7-0.6s0.8,6.7,13,8.3c0,0-2,4.3-0.2,12.2c1.5,7,7.4,11.3,9.7,12.5
			c-0.2,0.4-0.2,0.9-0.1,1.5c0.2,0.7,0.6,1.4,1.3,1.9c0.4,0.3,0.8,0.5,1.2,0.6c-0.4,0.5-0.7,1.2-1,2c-0.3,1.1-0.4,2.3-0.4,3.5
			c0,0.6,0,1.3,0.3,2c0.2,0.7,0.7,1.2,1.1,1.6c0.4,0.3,0.8,0.6,1.1,0.7c0.2,0.3,0.5,0.7,0.9,1c0.4,0.3,0.8,0.6,1.2,0.9
			c-0.4,0.4-1.2,1-2.2,1.6c-1.5,1-3.6,2-6.3,2.8c-2.6,0.8-5.8,1.4-9.1,2.3c-1.6,0.4-3.3,0.9-5,1.6c-1.6,0.7-3.2,1.5-4.7,2.4
			c-1.5,0.9-2.9,1.9-4.3,3c-0.2,0.2-0.4,0.3-0.6,0.5c0.3-0.5,0.6-1,1-1.4c-0.6,0.3-1.3,0.8-1.8,1.5c-0.5,0.7-1,1.5-1.2,2.5
			c-0.2,1-0.3,2.1,0,3.1c0.1,0.5,0.4,1.1,0.7,1.6c0.3,0.5,0.7,1,1.1,1.4c1.7,1.6,4,2.2,5.8,2.3c1.9,0.1,4.5-1.1,4.6-1.1
			c0.1-0.1,0-0.1-0.4,0c-0.6,0.1-2.1,0.4-4,0c-1-0.2-2-0.5-3.1-1.1c-1.1-0.6-2.1-1.4-2.9-2.5c-0.2-0.3-0.3-0.6-0.4-1
			c-0.3-0.7-0.3-1.5-0.3-2.2c0.1-0.3,0.1-0.5,0.3-0.7c0.3-0.6,0.8-1.2,1.4-1.8c0.6-0.5,1.3-1.1,1.9-1.6c2.7-2,5.9-3.6,9.1-4.7
			c3.2-1.1,6.4-1.7,9.3-2.5c2.9-0.8,5.3-1.7,7.1-2.7c1.8-1,2.9-1.9,3.3-2.3c0.3-0.3,0.5-0.5,0.6-0.7c-0.1,0.4-0.1,0.9-0.1,1.4
			c0,1,0.3,2,0.7,3.1c0.5,1,1.1,1.9,1.8,2.6c0.7,0.7,1.4,1.2,2.1,1.4c-0.7-1.3-1.6-2.8-2.4-4.7c-0.5-1.1-0.8-2.2-1.2-3.1
			c0.1,0.2,0.3,0.4,0.4,0.7c0.5,0.8,0.9,1.7,1.5,2.7c0.6,0.9,1.2,1.9,1.9,2.8c0.6,0.7,1.3,1.4,2,2c-0.3,0.1-0.7,0.1-1.1,0.2
			c-0.3,0-0.6,0.1-0.9,0.2c-3.1-1.2-5.9-2.6-8-3.4c1.5,1.5,3.8,3.2,6.7,4.5c0,0.2-0.1,0.5-0.3,0.8c-0.3,0.5-0.7,0.9-1.2,1.1
			c-0.2-0.1-0.5-0.1-0.8-0.2c-2.5-0.6-5-1.2-7.3-1.3c-2.3-0.1-4.4,0.3-6,1c1.7-0.2,3.7-0.2,5.9,0.2c2.2,0.4,4.5,1,7.1,1.6
			c0.4,0.1,0.9,0.2,1.3,0.3c0.1,0.3,0.1,0.6,0.1,0.9c-0.1,0.5-0.4,0.8-0.8,1.1c-0.5-0.2-1-0.4-1.6-0.6c-2.3-1-4.6-1.8-6.8-2.1
			c-1.1-0.2-2.2-0.2-3.1-0.1c-1,0.1-1.8,0.4-2.6,0.7c1.6-0.2,3.5-0.1,5.5,0.5c2,0.6,4.1,1.5,6.4,2.4c1.4,0.6,2.7,1.1,4.1,1.4
			c0,0.1,0.1,0.2,0.1,0.3c-2,0-4.1,0-6.3-0.2c-3.3-0.3-6.4-0.7-9.3-0.8c-2.9-0.2-5.6-0.2-7.8,0.2c2.1,0.6,4.6,1.4,7.4,2.1
			c2.3,0.6,4.8,1.1,7.6,1.5c-0.7,0-1.5,0-2.3,0c-3.6-0.1-7-0.6-10.2-1c-3.1-0.4-6-0.8-8.4-0.9c2.2,1.1,4.9,2.2,8,3.1
			c3.1,0.9,6.7,1.7,10.5,1.9c1.9,0.1,3.8,0,5.7-0.3c-0.3,0.1-0.6,0.1-0.9,0.2c-2.6,0.5-5.4,1-8.3,1.4c-3,0.4-5.8,0.6-8.4,0.8
			c-2.6,0.1-5,0.3-7,0.4c1.9,0.8,4.2,1.5,6.9,1.9c2.7,0.4,5.7,0.4,8.9,0c2.5-0.3,4.9-0.9,7.1-1.7c-1.2,0.7-2.6,1.4-4.2,2.1
			c-2.3,1-4.9,1.8-7.7,2.4c-1.4,0.3-2.8,0.4-4.1,0.5c-1.3,0.1-2.6,0.1-3.9,0.1c-2-0.1-3.8-0.5-5.4-1c0.9-0.5,1.5-1.1,2-1.7
			c-1,0.5-2.3,1-3.7,1.2c-1.4,0.2-2.9-0.1-4.1-1c-0.6-0.5-1-1-1.3-1.7c-0.3-0.6-0.4-1.3-0.5-2c0-0.8,0-1.7,0.1-2.4
			c0.2,0.3,0.4,0.6,0.7,0.8c0.4,0.4,0.8,0.6,1.2,0.8c0.8,0.4,1.6,0.5,2.3,0.6c-0.9-1-2.5-2-3.1-3.4c-0.2-0.4-0.3-0.7-0.3-1.1
			c0-0.3,0-0.6,0.1-1c0.1-0.3,0.3-0.7,0.5-1.1c0.1-0.4,0.2-0.8,0.1-1.1c-0.3,0.6-0.9,0.9-1.5,1.6c-0.3,0.4-0.6,1-0.6,1.5
			c-0.1,0.6,0.1,1.1,0.3,1.7c-0.4,0.8-0.8,1.8-1,2.9c-0.1,0.8,0,1.7,0.3,2.6c0.3,0.9,0.9,1.7,1.7,2.3c0.8,0.6,1.8,1,2.7,1.1
			c0.9,0.1,1.8,0,2.6-0.2c0.4-0.1,0.8-0.3,1.1-0.5c0.6,0.4,1.2,0.7,2,1c1.1,0.4,2.3,0.8,3.5,1c1.3,0.2,2.7,0.3,4.1,0.3
			c1.4,0,2.9-0.2,4.4-0.5c3-0.6,5.7-1.6,7.9-2.9c1.9-1.1,3.5-2.3,4.8-3.5c0.1-0.1,0.3-0.1,0.4-0.2c0.6-0.3,1.3-0.6,1.9-0.8
			c5.9,1.8,10.2,6.2,12.9,11.7c0.1-0.6,0-1.2-0.2-1.8c-0.4-1.6-8.1-10.8-9.1-12.1c0.1,0,0.1-0.1,0.2-0.1c1.3,0.1,6.8,0.5,8.9-0.7
			c0.6,0.2,7,2.4,10.3,1.4c0,0,0,0.1-0.1,0.1c-0.1,0.1-0.3,0.1-0.4,0.2c-0.6,0.3-1.2,0.7-1.7,1.1c-0.3,0.2-0.5,0.4-0.7,0.7
			c-0.2,0.3-0.4,0.5-0.6,0.8c-0.4,0.6-0.6,1.3-0.6,2c-0.1,0.7,0,1.3,0.2,1.9c0.3,1.2,1,2.1,1.7,2.8c0.4,0.4,0.8,0.8,1.2,1.1
			c-0.2-0.1-0.4-0.1-0.5,0c-0.1,0.2-0.2,0.5,0,0.7C84.3,125.8,84.6,126,84.8,126.1z M45.1,39.8c-2.8-2.3-3.4-1.3-7.2-1.9
			c-3.8-0.6-2.1-4.2-2.1-4.2s-1.9,2.5-4.9,3.8c-3,1.3-4.7-0.8-7.4-1.7c-0.7-0.2-1.4-0.4-2-0.5c0.6-2.3,1.9-4,3.4-5.2
			c1.1-0.2,2.2-0.3,3.5-0.3c1.8,0.1,3.8,0.5,5.8,1.1c2,0.6,3.9,1.4,5.7,1.9c1.7,0.6,3.3,1,4.7,1.1c2.1,0.7,5,1.4,8.2,2.1
			c0.5,0.1,0.9,0.2,1.4,0.3c-3.1,3.3-4.7,6.5-5.6,9C47.9,43.5,46.7,41.1,45.1,39.8z"/>
		<path class="st3" d="M117.6,93.6c-0.2-0.5-0.5-0.9-0.8-1.3c-0.1-0.2-0.3-0.3-0.4-0.5c-0.4-0.7-1-1.1-1.6-1.4c0,0,0,0.1,0,0.1
			c0,0-0.1-0.1-0.1-0.1c-0.8-0.5-1.6-0.7-2.4-0.8c-0.8-0.1-1.5,0-2.1,0.3c-0.4-0.8-1.1-1.6-2.1-2.3c-1-0.7-2.4-1.3-3.9-1.5
			c-1.5-0.2-2.9,0.1-4.1,0.6c-0.3,0.1-0.6,0.3-0.9,0.5c-1.7-0.3-3.7-0.6-5.9-0.4c-0.8,0.1-1.7,0.2-2.6,0.5c0,0,0,0,0,0
			c1.1-1.2,1.8-2.4,2.2-3.5c-0.8,0.9-1.8,1.8-2.9,2.7c-1.2,0.9-2.6,1.8-4.1,2.5c-1.6,0.7-3.1,1.1-4.6,1.4c-1.5,0.3-2.8,0.4-4,0.4
			c1.1,0.4,2.5,0.8,4.1,0.7c1.1,0,2.3-0.2,3.5-0.6c-1.6,1.5-2.9,3-4.3,4.1c-0.9,0.7-1.7,1.3-2.6,1.8c-0.9,0.5-1.8,0.8-2.6,0.9
			c0.9,0.1,1.9,0,2.9-0.3c1-0.3,2-0.8,3-1.5c2-1.3,3.8-3.2,5.8-4.9c1-0.8,2-1.5,3.1-2c1.1-0.5,2.2-0.8,3.3-1c2-0.4,4-0.5,5.6-0.6
			c-0.7,0.4-1.2,0.9-1.6,1.4c0.9-0.3,1.9-0.7,3-0.9c1.1-0.2,2.3-0.3,3.6-0.1c1.3,0.1,2.4,0.5,3.5,0.9c1,0.4,1.9,1,2.7,1.5
			c0,0,0-0.1-0.1-0.1c2-0.3,4.2,0.9,5.4,2.9c0,0.4,0,0.7-0.1,1.1c-0.2,1.2-1,2.3-2.2,3.3c-1.1,1-2.4,1.8-3.7,2.3
			c-1.3,0.5-2.5,0.8-3.7,1c1,0.5,2.5,0.9,4.1,0.6c1.6-0.2,3.4-0.9,4.8-2.2c-0.1,0.2-0.2,0.4-0.3,0.6c-0.9,1.7-2.2,3.5-3.7,5.2
			c-3.1,3.4-6.7,5.6-9.3,7.3c1.5-0.4,3.2-1.1,5-2.1c1.8-1,3.7-2.4,5.4-4.2c1.7-1.8,2.9-3.8,3.6-5.8c0.4-1,0.6-2,0.8-2.9
			c0-0.1,0.1-0.2,0.1-0.2c0,1.3-0.3,2.6-0.8,3.9c-0.7,1.8-1.6,3.7-2.8,5.3c-2.4,3.4-5.7,5.9-8.9,7.6c-3.3,1.7-6.6,2.4-9.4,2.6
			c2.8,0.5,6.4,0.3,10.1-1.1c1.8-0.7,3.7-1.7,5.4-3c-0.5,0.8-1,1.7-1.6,2.6c-0.9,0.6-1.8,1.2-2.9,1.8c-1.6,0.8-3.4,1.6-5.3,2.2
			c-2,0.5-3.9,0.8-5.7,0.9c-1.8,0.1-3.4,0-4.8-0.1c1.3,0.6,2.9,1.1,4.8,1.2c1.9,0.2,4,0,6.1-0.6c2.1-0.6,4-1.6,5.5-2.7
			c0.3-0.2,0.6-0.5,0.9-0.8c-1.3,1.8-2.8,3.7-4.7,5.2c-1.1,0.8-2.2,1.5-3.4,1.9c-1.2,0.5-2.4,0.8-3.6,0.9c-2.4,0.3-4.6,0-6.4-0.6
			c0.7,0.6,1.7,1.1,2.8,1.5c-0.5,0.1-1,0.3-1.5,0.5c-1.2,0.6-2.3,1.6-3.1,2.9c-0.8,1.3-1.1,2.8-1.1,4.1c0,1.3,0.3,2.4,0.7,3.3
			c0.2-1.8,0.5-4.3,1.7-6.6c0.6-1.1,1.5-2,2.3-2.7c0.6-0.5,1.2-0.9,1.9-1.2c0.7,0.2,1.4,0.3,2.2,0.4c-0.5,0.1-1,0.3-1.5,0.5
			c-0.6,0.2-1.2,0.4-1.9,0.8c-0.6,0.3-1.2,0.8-1.7,1.4c-0.5,0.6-0.9,1.4-1.1,2.1c-0.2,0.8-0.3,1.6-0.3,2.5c0,1.7,0.5,3.3,1,4.9
			c0.5,1.6,0.9,3.1,1.1,4.5c0.2,1.4,0,2.8-0.7,3.9c-0.4,0.8-1.1,1.4-1.8,2c0.2-0.3,0.3-0.7,0.4-1.1c0.3-1.1,0.2-2.2,0-3.1
			c-0.2-0.9-0.5-1.7-0.8-2.4c-0.3,1.4-0.3,3.3-0.7,5.2c-0.4,1.8-1.3,3.3-2.5,4.2c0,0,0,0,0,0c0,0-0.1,0.1-0.1,0.1
			c0.1,0,0.1-0.1,0.2-0.1c0.7,0,1.5-0.3,2.3-1c0.1-0.1,0.2-0.2,0.3-0.3c0.1-0.1,0.2-0.1,0.4-0.2c0.6-0.3,1.1-0.6,1.7-1
			c0.6-0.4,1.1-0.9,1.6-1.6c0.5-0.6,0.8-1.4,1-2.2c0.2-0.8,0.2-1.6,0.2-2.5c-0.1-1.7-0.5-3.3-1-4.9c-0.5-1.5-0.9-3.1-1-4.5
			c-0.1-1.4,0.1-2.8,0.8-3.9c0.7-1.1,1.8-1.8,2.9-2.3c0.7-0.4,1.4-0.7,2-1c1.3,0,2.7-0.1,4-0.5c1.4-0.4,2.9-1.2,4.1-2.2
			c1.2-1,2.3-2.1,3.1-3.3c0.8-1.2,1.5-2.4,2.1-3.5c0.9-1.9,1.6-3.8,1.9-5.4c1.5-1.2,2.8-2.6,4-4.2c1.4-1.9,2.3-4,3-6
			c0.6-2.1,0.8-4.3,0.3-6.4C118,94.6,117.8,94.1,117.6,93.6z"/>
		<path class="st3" d="M77.7,88.1c1.6,0.2,3.5,0.3,5.6-0.1c2.1-0.4,4.4-1.1,6.6-2.4c1.1-0.6,2.1-1.3,3-2.2c0.9-0.8,1.6-1.9,2-2.9
			c0.4-1,0.6-2.1,0.7-3c0.1-0.9,0.1-1.8,0.1-2.6c-0.2,0.8-0.4,1.6-0.7,2.5c-0.3,0.9-0.6,1.8-1.1,2.6c-0.9,1.7-2.7,3.1-4.7,4.2
			c-2,1.2-4.1,2-6.1,2.6C81.1,87.5,79.3,87.8,77.7,88.1z"/>
		<path class="st3" d="M80,64.7c1.3-0.8,2.9-2.3,4.1-4.4c1.2-2.1,1.8-4.2,1.9-5.7c-0.6,1.4-1.4,3.3-2.5,5.3
			C82.3,61.9,81,63.5,80,64.7z"/>
		<path class="st3" d="M146.4,59c0,0,0.6-0.2,1.2-0.5l0,0c0.7-0.4,1.5-1,1.5-1.7c0-1.4-2.1-4-3-5.4c-1-1.4-4.3-3-4.3-3
			s-0.8-1.3-1.7-1.4c-0.5-0.1-1.4-0.1-2.1-0.1c-7.2-7.7-28.4-29.6-37-31.3c0.7,0.4,5.7,5.3,11.9,11.4c0,0-0.1,0-0.1,0.1
			c-1.4,1-2,2.5-1.4,3.4c0.6,0.9,2.3,0.9,3.7-0.1c0.2-0.2,0.5-0.4,0.7-0.6c5.4,5.4,11.3,11.3,15.5,15.5c0.7,1.2,1.3,2.7,1.4,4.4
			c-2.3-1.1-5.9-2.5-8.4-1.8c-2.1,0.6-4.2,3.3-6,5.3c0-0.1,0-0.1,0-0.2c-0.3-1.3-1.2-2.3-2.1-2.7c0.1,0.9,0.3,2,0.6,3.1
			c0.1,0.4,0.2,0.7,0.3,1c-0.3,0.3-0.7,0.6-1,0.8c0-0.1,0-0.1,0-0.1c-0.1-0.9-0.4-1.9-1-2.8c-0.6-0.9-1.3-1.6-2-2.1
			c-0.8-0.5-1.5-0.8-2.2-0.9c0.9,1,2,2.3,2.9,3.8c0.5,0.9,0.9,1.7,1.3,2.5c-0.5,0.1-0.9-0.1-1.3-0.5c-5.9-6.1-7.8-4.9-7.8-4.9
			s2.3,7.6-4,11c-0.4,0.2-0.8,0.4-1.2,0.6c0.1-0.3,0.2-0.5,0.2-0.8c0.4-1.4,0.8-2.8,0.9-3.9c-0.9,0.6-1.9,1.9-2.4,3.5
			c-0.2,0.6-0.3,1.2-0.3,1.8c-0.4,0.1-0.8,0.2-1.1,0.3c0.2-0.8,0.4-1.7,0.6-2.5c0.6-2.8,1.2-5.3,1.5-7.2c-1.2,1.5-2.4,4-3,6.9
			c-0.2,1.1-0.4,2.1-0.5,3.1c-0.4,0-0.8,0.1-1.2,0c0.2-1.6,0.5-3.3,0.9-5.1c0.8-3.3,2-6.2,2.8-8.3c-0.8,0.8-1.7,1.9-2.5,3.2
			c-0.8,1.3-1.4,2.9-1.9,4.7c-0.4,1.8-0.6,3.5-0.5,5c0,0.1,0,0.2,0,0.4c-0.2,0-0.4-0.1-0.6-0.1c-0.5-5.6,1.6-11.3,5.6-16.9l5.7,2.1
			c0,0,1-3.9-2.3-5.9c-0.6-0.5-1.4-0.9-2.2-1.3c-1.6-0.6-3.5-0.7-5.4-0.5c-1,0.1-1.9,0.3-2.7,0.5c-0.9,0.2-1.7,0.4-2.5,0.6
			c-1.4,0.4-2.6,0.9-3.5,1.6c0-0.3,0.1-0.6,0-1c0-0.3-0.1-0.7-0.3-1.1c-0.1-0.2-0.2-0.4-0.4-0.6c-0.2-0.2-0.4-0.3-0.7-0.4
			c-0.3-0.1-0.5-0.1-0.7-0.1c-0.2,0-0.4,0-0.5,0c-0.3,0-0.7,0-1,0.1c-2.5,0.2-4.7,0.8-6.3,1.6c-0.3-0.4-5.3-8.4-7.6-8.8
			c1.5,2.2,6.8,10,6.4,11.6c-0.5,1.9-4-1.8-4-1.8s5.8,9.3,3.6,8.9c-2.2-0.4-2.8,0.1-1.1,3.8c0.2,0.3,0.3,0.7,0.4,1.1
			c-1.3-1.1-2.7-2-4.1-3c-1.7-1.2-3.3-2.5-4.4-4.2c-0.3-0.5-1.2-2.1-1.3-2c-1.8,3.2-3.9,6.1-6.3,8.8c-0.6,0.7-1.6,1-3.6,3.8
			c-0.1,0.2-0.3,0.4-0.4,0.6c0.3-2.3,0.8-4.8,1.5-7.5c0.7-2.7,1.4-5.2,2.1-7.5c0.3-1.1,0.7-2.2,1.1-3.2c0.4-1,0.9-1.8,1.5-2.5
			c-0.7,0.5-1.4,1.3-2,2.2c-0.6,0.9-1.1,2-1.6,3.1c-1,2.2-1.8,4.8-2.5,7.5c-0.7,2.7-1.1,5.3-1.1,7.7c-0.4-1.6-0.6-3.2-0.8-4.4
			c-0.3,1-0.6,2.2-0.5,3.6c0,1.4,0.3,3,0.8,4.5c0.6,1.5,1.4,2.9,2.3,4c0,0,0,0.1,0.1,0.1c0.3,0.5,0.6,0.9,1,1.4
			c2.7,3.1,3.8,3.7,5.1,4.7l0.5-3.3c1.6,1.7,3.6,3.1,5.5,3.1c2.6,0,4.7-3.2,6.1-5.7l0.6,1.5c1.5-1.3,2.8-3,3.6-4.8
			c1.2-2,3.1-6.7,1.9-15.7c0.2,0.5,0.3,1.1,0.5,1.7c0.6,2.3,0.8,4.9,0.6,7.6c-0.2,2.7-0.9,5.2-1.7,7.4c-0.9,2.2-2,4.1-3,5.6
			c0.9-0.8,1.9-1.8,2.8-3.1c0.7-0.2,1.4-0.6,2.2-1c1.1-0.6,2.3-1.5,3.3-2.6c0.9-1,1.6-2.2,2.1-3.3c0.2,3.7,1.5,7.2,3.4,9.7
			c0.2,0.3,0.5,0.6,0.8,0.9c0.3,0.3,0.5,0.6,0.8,0.9c0.6,0.5,1.1,1,1.6,1.5c1.1,0.9,2,1.8,2.7,2.8c-0.5-1.1-1.3-2.2-2.3-3.2
			c-0.5-0.5-1-1.1-1.4-1.6c-0.2-0.3-0.5-0.6-0.7-0.9c-0.2-0.3-0.4-0.6-0.6-0.9C88.1,68,87.1,64.6,87,61c-0.2-3.6,0.6-7,1.7-9.9
			c1.1-3,2.4-5.5,3.6-7.6c-1.6,1.8-3.3,4.2-4.7,7.1c-0.7,1.5-1.3,3.1-1.7,4.9c-0.3,1.2-0.5,2.5-0.5,3.8c-0.9,1.4-1.9,2.9-3.2,4.4
			c-1.1,1.3-2.3,2.3-3.4,3.3c0.1-0.2,0.3-0.4,0.4-0.7c0.5-0.8,0.9-1.8,1.2-2.7c1.2-1.4,2.4-3.5,3-6c0.7-2.9,0.5-5.6,0-7.5
			c-0.4,1.9-0.8,4.4-1.5,7.1c-0.1,0.6-0.3,1.2-0.5,1.8c0-0.1,0-0.3,0-0.4c0.2-2.9-0.3-5.7-1.1-8c-0.5-1.5-1.2-2.8-2-3.9
			c-0.4-2.1-1.1-3.8-1.6-4.9c1.7,0,3.7-0.2,5.9-0.3c0.3,0,0.7-0.1,1-0.1c0.2,0,0.3,0,0.5,0c0.1,0,0.2,0,0.3,0c0.1,0,0.1,0,0.1,0
			c0.1,0,0.1,0.1,0.2,0.2c0.1,0.2,0.2,0.4,0.3,0.7c0.3,1,0.2,2-0.1,2.9c0.5-0.4,1-1.1,1.2-1.9c1.1-0.3,2.4-0.5,3.8-0.7
			c0.8-0.1,1.6-0.2,2.5-0.3c0.9-0.1,1.7-0.2,2.6-0.3c0.4,0,0.8-0.1,1.2-0.1c-0.9,0.2-1.6,0.4-1.6,0.4s-6,7.6-6.2,17
			c-0.2,9.4,7.2,15.9,7.2,15.9l1.3-2.4c0,0,0,0,0,0c0,0,0,0,0,0c1.1-2.1,2.5-4.8,2.6-5.2c0.2-0.6,2.5-4.3,2.5-4.3s7.9-1,11.9-4.6
			c1.9-0.8,7.3-0.8,10.5-3c1.3-0.3,7.3-2.4,7.3-2.4l5.6,1.9c0,0,2.2,4.8,3.2,5.4c1,0.6,2.7,0.3,2.7,0.3l4.5,4.6l2.4-1.7L146.4,59z"
			/>
		<path class="st3" d="M84.2,79.7c-1.7,0.9-3.8,1.7-6.1,2.1c-2.3,0.4-4.5,0.5-6.5,0.5c-2,0-3.8-0.2-5.3-0.3c1.5,0.4,3.3,0.7,5.3,0.9
			c2,0.2,4.3,0.1,6.6-0.3c2.3-0.5,4.5-1.3,6.2-2.4c1.7-1.1,3-2.4,3.9-3.7C87.4,77.6,86,78.7,84.2,79.7z"/>
		<path class="st3" d="M72.8,125.5c-1-0.9-1.9-1.7-2.7-2.3c0,1,0.6,2.4,1.7,3.5c1.1,1.1,2.6,1.5,3.6,1.4
			C74.7,127.3,73.8,126.4,72.8,125.5z"/>
	</g>
	<path class="st4" d="M67,62.8c0,0,0.9-1.2,2.1-2.1c1.2-0.8,3.5-1.4,3.5-1.4S71.7,62.8,67,62.8z"/>
	<path class="st4" d="M63.8,62.8c0,0-1.1-1.1-2.4-1.9c-1.3-0.8-3.5-1.6-3.5-1.6S58.9,62.9,63.8,62.8z"/>
</g>
</svg>
