<?xml version="1.0" encoding="utf-8"?>
<!-- Generator: Adobe Illustrator 23.1.1, SVG Export Plug-In . SVG Version: 6.00 Build 0)  -->
<svg version="1.1" id="Capa_1" xmlns="http://www.w3.org/2000/svg" xmlns:xlink="http://www.w3.org/1999/xlink" x="0px" y="0px"
	 viewBox="0 0 1000 388" style="enable-background:new 0 0 1000 388;" xml:space="preserve">
<style type="text/css">
	.st0{fill:url(#SVGID_1_);}
	.st1{fill:url(#SVGID_2_);}
	.st2{fill:url(#SVGID_3_);}
	.st3{fill:#ED6962;}
	.st4{fill:#172C49;}
	.st5{fill:#F6E1CA;}
	.st6{fill:url(#SVGID_4_);}
	.st7{fill:url(#SVGID_5_);}
	.st8{fill:none;}
	.st9{fill:#B2B4C1;}
	.st10{opacity:0.5;fill:#B2B4C1;}
	.st11{fill:url(#SVGID_6_);}
	.st12{fill:url(#SVGID_7_);}
	.st13{opacity:0.5;}
	.st14{fill:url(#SVGID_8_);}
	.st15{fill:url(#SVGID_9_);}
	.st16{fill:url(#SVGID_10_);}
</style>
<g>
	<g>
		<g>
			<linearGradient id="SVGID_1_" gradientUnits="userSpaceOnUse" x1="148.2888" y1="375.8942" x2="208.1333" y2="36.4993">
				<stop  offset="0" style="stop-color:#ED6962;stop-opacity:0.1"/>
				<stop  offset="1" style="stop-color:#ED6962"/>
			</linearGradient>
			<path class="st0" d="M327.9,322.9h-44.5v57.4H173.8v-57.4H0v-71.8L142.2,45.3H258l-126.4,190h45.5v-51.2h106.3v51.2h44.5V322.9z"
				/>
			<linearGradient id="SVGID_2_" gradientUnits="userSpaceOnUse" x1="465.0272" y1="385.4029" x2="525.8816" y2="40.2802">
				<stop  offset="0" style="stop-color:#ED6962;stop-opacity:0.1"/>
				<stop  offset="1" style="stop-color:#ED6962"/>
			</linearGradient>
			<path class="st1" d="M416.7,367.2c-22.8-13.9-40.7-34-53.6-60.3c-12.9-26.3-19.4-57.7-19.4-94.1c0-36.4,6.5-67.7,19.4-94.1
				c12.9-26.3,30.8-46.4,53.6-60.3c22.8-13.9,49.1-20.8,78.7-20.8c29.7,0,55.9,6.9,78.7,20.8c22.8,13.9,40.7,34,53.6,60.3
				c12.9,26.3,19.4,57.7,19.4,94.1c0,36.4-6.5,67.7-19.4,94.1c-12.9,26.3-30.8,46.4-53.6,60.3c-22.8,13.9-49.1,20.8-78.7,20.8
				C465.8,388,439.5,381.1,416.7,367.2z M533.8,212.8c0-56.5-12.8-84.7-38.3-84.7c-25.5,0-38.3,28.2-38.3,84.7
				c0,56.5,12.8,84.7,38.3,84.7C521,297.6,533.8,269.3,533.8,212.8z"/>
			<linearGradient id="SVGID_3_" gradientUnits="userSpaceOnUse" x1="820.3762" y1="375.8942" x2="880.2207" y2="36.4989">
				<stop  offset="0" style="stop-color:#ED6962;stop-opacity:0.1"/>
				<stop  offset="1" style="stop-color:#ED6962"/>
			</linearGradient>
			<path class="st2" d="M1000,322.9h-44.5v57.4H845.9v-57.4H672.1v-71.8L814.3,45.3h115.8l-126.4,190h45.5v-51.2h106.3v51.2h44.5
				V322.9z"/>
		</g>
		<g>
			<g>
				<g>
					<path class="st3" d="M490.7,24.5c0.3-0.4,3-0.8,4.2-1.1c6.5-1.6,15.9-0.6,22.6-0.1c6.5,0.5,8.5-16.1,7.1-18
						c-0.6-0.8-5.5-2.8-5.8-0.5c0.3-1.8-0.1-2.9-1.1-3.6c-1.4-1.1-6.8-1.3-8.6-1.1c-4.4,0.8-7.1,6.8-11,6.8c-3.1,0-4.6,0-9,0
						C489.1,6.8,490.1,20.9,490.7,24.5z"/>
				</g>
				<g>
					<path class="st4" d="M329.8,178.1c1.7,0,6.9,4.5,8.9,5.4c4,1.6,8.5,1.7,12.6,3c4.5,1.3,12.2,9.3,18.7,14.7c0,0-8.8-2.2-9.4-1.9
						c-0.7,0.2-29.8-10.3-29.8-10.3l-3.7-10.7C327.1,178.1,329.8,178.1,329.8,178.1z"/>
				</g>
				<g>
					<path class="st5" d="M353.6,126.9c20.5-32.1,61.8-58,95.2-73c13.6-6.1,28-13.7,41.6-19.1c0.7-7.5,4.1-21.8-1.4-28
						c-14.8,0-29,2.1-43.7,4.1c-51.9,6.9-212.4,50.9-249.1,93.3c-34.8,40.2-27.8,106,42.5,106l13-46.7c-12.6-6.3-23-12.4-25.1-22.6
						c-0.7-5.3,1-11.5,4.2-16.1l0.2,0.1c4.8,9.6,8.1,22.2,10.5,32.4l12.7,24.6c20.9,7.2,61.4,1.4,81.5-2c16.9-5.5,6.5-23.9,9.2-31.4
						C346.9,143.7,348.6,143.7,353.6,126.9z"/>
				</g>
				<g>
					<path class="st3" d="M196.4,350.4c-15,3.3-34.5,5.8-50.1,12.4c-3.5,1.5-7.8,10.9-6.1,10.7c3.9-0.4,5.4,2.1,5.9,5.8
						c-5.4,1.1-10.9,0-16.5,0c-1.1-3.2-0.2-6.8-1.8-10.6c-1.6-4.9-6.9-12.8-6-18.2c1-6,3.8-3.2,17.3-12.6c3.7-2.6,21.4-13.8,39-25.8
						l14.3,10.6L196.4,350.4z"/>
				</g>
				<g>
					<path class="st3" d="M405.9,353c-3.5,6.2-10.4,12.2-2.2,14.6c4.3,1.3,7.6,1.8,11.7,3.5c6.2,2.5,10.8,8.6,4,8.6
						c-10.7,0-20.6-0.1-29.9-0.1l-9.9,0.1c-10,1.2-5.7-9.1-4.9-14.5c1-7.1,2.2-13.5,2.2-13.5l32-6.8L405.9,353z"/>
				</g>
				<g>
					<path class="st5" d="M350.2,193.3c24.9,11.4,60.8,18.5,83.1,34.6c8.3,5.7,7.8,9.9,8.3,20.2c1,17.1,1.6,34.3,1.6,51.4
						c0.5,13.5-0.5,27.5,1,41l-0.5,0.5c-14.8,7-47,16.9-68,17.1c4.6-24.5,6.5-49.4,7.2-74.2c0.5-17.1-10.4-13.5-23.9-15.1
						c-9.9-0.5-27-0.5-35.3-7.3l-3.4-1.4c-15.2,33.1-73.3,84-113.3,107.1c-10.6-10.2-40.7-41.3-28.9-55.1c36.6-25,64.9-49,68.9-73.1
						l3.4-37.7l90.9-10.1L350.2,193.3z"/>
				</g>
				<g>
					<path class="st3" d="M301.8,42.6c0,0,0.2,3.7,5.3,4.4l7.1-2.4c6.6,6.6,10.5,23,10.5,34.6c0,16.2-1.1,28.5-3.9,44v-2.9
						c0-51.9-30.2-67.4-30.2-67.4c-2.9-10.3-7.1-20.9-0.4-30.1c7.8-10.8,20.3-9.1,19.5,11.6c-0.1,2.7-0.5,6-1.7,7.7
						c-0.4,0.6-0.9,0.9-1.5,1C304.9,43.4,301.8,42.6,301.8,42.6z"/>
				</g>
				<g>
					<path class="st4" d="M231,124.7c3.1-4.4,7.5-7.4,12.8-7.1c0,0-7.3,20.3-4.4,30.5c2.8,10.2,0,0,0,0l-8.2-23.3"/>
				</g>
				<g>
					<linearGradient id="SVGID_4_" gradientUnits="userSpaceOnUse" x1="304.1211" y1="141.2928" x2="318.6712" y2="144.8049">
						<stop  offset="0" style="stop-color:#FFFFFF;stop-opacity:0"/>
						<stop  offset="1" style="stop-color:#7A7C72"/>
					</linearGradient>
					<path class="st6" d="M308.6,183.6c0-15.7,5.1-29.1,8.5-44.1c1.4-5.5,2.6-10.9,3.6-16.3c0,0,0.5-16.6-2.6-26.7
						c0,0-13.5,40-19.6,62.1c-4.5,16.2-5.7,25.8-12.7,26.4"/>
				</g>
				<g>
					<path class="st4" d="M306.2,19.3c-1.6-1.7-4.5-0.2-5.7,0.7c-2.6,1.9-2.4,4.9-2,7.7c0.1,0.6,0.8,3.7-0.3,4
						c-0.9,0.4-2.2-2-2.7-2.6c-3.3-2.9-4.3,2.1-1.5,4c1.7,1.2-5.4,3.9-6.4,9.5c-3-2.2-5.8-13.2-4.2-19.8c2.5-10.2,9.8-9.4,16.3-9.9
						c2.1-0.2,6,1,7,3C307.7,17.7,306.3,19.2,306.2,19.3z"/>
				</g>
				<linearGradient id="SVGID_5_" gradientUnits="userSpaceOnUse" x1="297.6438" y1="49.3731" x2="300.7158" y2="36.6126">
					<stop  offset="0" style="stop-color:#FFFFFF;stop-opacity:0"/>
					<stop  offset="1" style="stop-color:#B2B4C1"/>
				</linearGradient>
				<path class="st7" d="M294.4,33.7c1.1,3.4,2.2,7.8,7.5,8.9c0,0,0,2.7,5.3,4.4c5.3,1.7-4.3,7.7-4.3,7.7s-11.7-3.4-11.6-9.2
					c0-5.8-2.1-5.8-2.1-5.8S289.2,36,294.4,33.7z"/>
				<g>
					<path class="st8" d="M231.2,124.8l-0.2-0.1c-3.3,4.7-4.9,10.9-4.2,16.1c1.5,7.5,7.4,12.7,15.4,17.5l-0.6-1.1
						C239.2,147,235.9,134.4,231.2,124.8z"/>
					<path class="st8" d="M487.8,35.9c0.9-0.4,1.8-0.7,2.6-1.1C490.5,34.8,489.5,35.2,487.8,35.9z"/>
					<path class="st8" d="M482.2,38.3c-7,3-17.8,7.9-30.4,14.3C461.8,48,472.1,42.8,482.2,38.3z"/>
					<path class="st8" d="M407.2,59c27.5-14.8,84.2-29.1,84.6-34.9l-0.7,5.7c1.1-7.7,2.4-18-2-22.9c-14.8,0-29,2.1-43.7,4.1
						c-51.9,6.9-212.4,50.9-249.1,93.3c-34.8,40.2-27.8,106,42.5,106l10.6-38l5,9.6c20.9,7.2,61.4,1.4,81.5-2
						c16.9-5.5,6.5-23.9,9.2-31.4c1.8-4.7,3.5-4.6,8.5-21.5c1.6-2.6,3.4-5.1,5.3-7.5l-1.2-41.6C359.7,85.5,379.8,73.8,407.2,59z
						 M226.8,140.9c-0.7-5.3,1-11.5,4.2-16.1l0.2,0.1c4.8,9.6,8.1,22.2,10.5,32.4l0.6,1.1C234.2,153.6,228.3,148.3,226.8,140.9z"/>
					<path class="st8" d="M359.5,118.7c4.6-5.9,9.8-11.6,15.5-17C368.8,107.3,363.5,113,359.5,118.7z"/>
					<path class="st9" d="M491.1,29.7c0,0,0.7-5.7,0.7-5.7c-0.8,6.9-29.1,13-34.4,14.9c-21.5,7.5-42.5,15.7-62.5,26.6
						c-2.7,1.4-34.8,21.7-37.1,12.2l2.7,17.9l-1.5,23.7c0.2-0.2,0.4-0.4,0.5-0.7c4.1-5.8,9.4-11.4,15.5-17
						c21.5-20.4,49.8-37,73.9-47.8c1-0.4,1.9-0.9,2.9-1.3c12.6-6.3,23.4-11.2,30.4-14.3c1.9-0.8,3.8-1.6,5.6-2.4
						c1.7-0.7,2.6-1.1,2.6-1.1C490.6,33.3,490.8,31.6,491.1,29.7z"/>
				</g>
				<g>
					<path class="st4" d="M353.6,126.9c5.7-19,8.6-40.6,0.4-59.1c0,0,11.2,21.5,5.9,50.2L353.6,126.9z"/>
				</g>
				<g>
					<path class="st8" d="M491.6,12.2c1.4,5.6,2.8,5.2,9.8,5.3c7,0.1,21.7,2.1,22.6-2.6c1.1-4.2,1.2-8.7,0.6-9.6
						c-0.6-0.8-5.5-2.8-5.8-0.5c0.3-1.8-0.1-2.9-1.1-3.6c-1.4-1.1-6.8-1.3-8.6-1.1c-4.4,0.8-7.1,6.8-11,6.8c-3.1,0-4.6,0-9,0
						c0,0,1,14.1,1.6,17.7c0.1-0.1,0.5-0.3,1.1-0.4C492.1,20.6,492.3,15.6,491.6,12.2z"/>
					<path class="st8" d="M524,15.1l-0.1,0.4C523.9,15.3,523.9,15.2,524,15.1z"/>
					<path class="st10" d="M501.4,17.6c-7-0.1-8.4,0.3-9.8-5.3c0.7,3.3,0.4,8.4,0.1,11.8c1-0.3,2.3-0.5,3.1-0.7
						c6.5-1.6,15.9-0.6,22.6-0.1c3.2,0.2,5.3-3.6,6.4-7.9l0.1-0.4c0,0,0-0.1,0-0.1C523.1,19.7,508.4,17.7,501.4,17.6z"/>
				</g>
				<g>
					<path class="st8" d="M231.2,124.8l-0.2-0.1c-3.3,4.7-4.9,10.9-4.2,16.1c1.5,7.5,7.4,12.7,15.4,17.5l-0.6-1.1
						C239.2,147,235.9,134.4,231.2,124.8z"/>
					<path class="st8" d="M489.1,6.8c-14.8,0-29,2.1-43.7,4.1c-51.9,6.9-212.4,50.9-249.1,93.3c-6.5,7.5-11.6,16-15,24.7l0,0
						c-4.1,13.9,12.1,45.4,53.7,55.4l4.7,22.6l9.6-34.7l5,9.6c20.9,7.2,61.4,1.4,81.5-2c16.9-5.5,6.5-23.9,9.2-31.4
						c1.8-4.7,3.5-4.6,8.5-21.5c20.5-32.1,61.8-58,95.2-73c13.6-6.1,28-13.7,41.6-19.1C491.2,27.3,494.6,13,489.1,6.8z M226.8,140.9
						c-0.7-5.3,1-11.5,4.2-16.1l0.2,0.1c4.8,9.6,8.1,22.2,10.5,32.4l0.6,1.1C234.2,153.6,228.3,148.3,226.8,140.9z"/>
					<path class="st9" d="M181.4,128.9L181.4,128.9c-14.9,37.9,0.4,81.3,57.5,81.3l0.9-3.3l-4.7-22.6
						C193.4,174.3,177.3,142.8,181.4,128.9z"/>
				</g>
				<g>
					<path class="st4" d="M238.9,210.2c-15.9-1.3,1.6-40.5,6.2-44.6c9.8-8.7,8.1,10.7,7.9,14.8C252.6,188.4,249.4,208.3,238.9,210.2
						"/>
				</g>
				<g>
					<path class="st3" d="M249.2,164.2c4.6,0.3,8.6,0.3,11.9,0.1c2.9-0.2,6.3-2.3,8.2-3.4c13-7.1,9.3-0.4,11.5,0.1
						c5.3,1.1,0.9,10-0.4,13.8c-2.6,7.5-5.9,5-13.6,4.8c-9.4-0.2-28.8-1.3-28.8-1.3S243.8,163.8,249.2,164.2z"/>
				</g>
				<path class="st9" d="M187.8,346c6.5,7.9,83.4-32.3,71.5-61.2l37.4,8.9c0,0-41.8,45.2-89.5,73.6
					C207.1,367.3,191.7,351.5,187.8,346z"/>
				<linearGradient id="SVGID_6_" gradientUnits="userSpaceOnUse" x1="231.2601" y1="303.389" x2="259.6922" y2="283.6">
					<stop  offset="0" style="stop-color:#FFFFFF;stop-opacity:0"/>
					<stop  offset="1" style="stop-color:#B2B4C1"/>
				</linearGradient>
				<path class="st11" d="M245.1,246.7c0,0-6.6,18.6-27.7,35.7l31.9,55.5c0,0,31.1-23.9,50.6-47.9
					C319.4,266,245.1,246.7,245.1,246.7z"/>
				<g>
					<path class="st5" d="M306.1,202.8c-8.1,32.2-1.2,63,3.6,91c-32.8,8.2-4.6,0.7-36.7,10.9c-19-21.1-36.9-69.9-23.7-108.8
						l58.1-4.6L306.1,202.8z"/>
				</g>
				<g>
					<path class="st8" d="M443.2,299.5c0-17.1-0.5-34.3-1.6-51.4c-0.5-10.4,0-14.5-8.3-20.2c-22.3-16.1-58.2-23.2-83.1-34.6
						l-8.7-1.9l-90.9,10.1l-3.4,37.7c-4,24.1-32.4,48.1-68.9,73.1c-11.9,13.8,18.3,44.9,28.9,55.1c40.1-23.1,98.1-74,113.3-107.1
						l2.9,1.2c0-10.7,0.9-39,8.7-56.2c-3,9.9-2.6,38.9,1.4,45.1c4,6.1,70-12.3,77.5,6.4c7.5,18.6,10.6,92.7,10.6,92.7
						c8.8-2.7,16.7-5.7,22.2-8.3l0.5-0.5C442.6,327,443.7,313,443.2,299.5z"/>
					<path class="st8" d="M375.7,358.1c13.2-0.2,30.8-4.1,45.7-8.8l-45.3,6.1C376,356.4,375.9,357.3,375.7,358.1z"/>
					<path class="st9" d="M333.4,250.3c-4-6.1-4.3-35.1-1.4-45.1c-7.8,17.3-8.7,45.5-8.7,56.2l0.4,0.2c8.3,6.7,25.4,6.7,35.3,7.3
						c13.5,1.6,23.9-2.1,23.9,15.1c-0.1,28.5-7.2,74.2-7.2,74.2c17.4,0,45.7-8.8,45.7-8.8c0,0,0,0,0,0c0,0-3.1-74-10.6-92.7
						C403.4,238,337.4,256.4,333.4,250.3z"/>
				</g>
				<linearGradient id="SVGID_7_" gradientUnits="userSpaceOnUse" x1="176.3468" y1="333.9133" x2="189.9931" y2="332.5486">
					<stop  offset="0" style="stop-color:#FFFFFF;stop-opacity:0"/>
					<stop  offset="1" style="stop-color:#B2B4C1"/>
				</linearGradient>
				<path class="st12" d="M177.2,313.6c-7,12.7,3.5,40.2,3.5,40.2l11.3-2.5C192,351.3,173.3,331.4,177.2,313.6z"/>
				<g class="st13">
					<path class="st9" d="M124.7,361.5c1.2,2.7,2.5,5.2,3.2,7.2c1.6,3.8,0.7,7.3,1.8,10.6c5.6,0,11.1,1.1,16.5,0
						c-0.5-3.7-2-6.2-5.9-5.8c-1.7,0.2,2.6-9.2,6.1-10.7c14.1-6.1,31.5-8.6,45.8-11.5l-8.6-10.9
						C164.3,345.1,128.8,369.7,124.7,361.5z"/>
				</g>
				<path class="st10" d="M400.2,362.3c1.8-3.5-25.9,2-26.4,7.5l2-11.7c0,0,10.7,0.4,29.7-4.4L400.2,362.3z"/>
				<path class="st9" d="M249.2,196c-2.2,7.6-1.7,9.5,16.9,9c18.6-0.5,49.9-0.9,49.9-0.9s-11.7,60.3-8.6,76.7l6.2-5l7.2-81.2
					L249.2,196z"/>
				<g>
					<path class="st4" d="M321.6,183.2c5.9-11.7,12.8-0.6,13,6.9c0.2,10.4-5.3,22-7.2,32.2c-4.6,25-4.8,46.6-2.7,71.5
						c-4.8-2.7-9.5-2.7-14.7-3.7C310,255.1,310.5,216.6,321.6,183.2"/>
				</g>
				<g>
					<path class="st4" d="M350.2,193.3c-25.2,8.2-58,8.9-84.6,9.6c-4.8,0-11.1,0-15-1.4c-3.7-1.2,1.5-22.4,1.5-22.4s3,6.6,30.3,6
						c27.3-0.6,58.7-4.4,61-10.3C343.3,174.8,352.3,180.4,350.2,193.3z"/>
				</g>
				<g>
					<path class="st8" d="M243.2,168.9c-1.7,3.1,0.1,4.1,10.7,4.4c11.8,0.3,26.8,1.5,27.9-1.8c1.6-4.2,3.2-9.7-0.8-10.5
						c-2.2-0.4,1.4-7.2-11.5-0.1c-1.9,1.1-5.3,3.2-8.2,3.4c-3.4,0.2-7.3,0.2-11.9-0.1c-1.9-0.1-3.7,1.5-5.4,3.6L243.2,168.9
						C243.2,168.9,243.2,168.9,243.2,168.9z"/>
					<path class="st8" d="M243.2,168.9c0.2-0.3,0.4-0.7,0.6-1c-3.2,4.2-5.7,10.3-5.7,10.3h0C239.1,175.8,241.2,171.3,243.2,168.9z"
						/>
					<path class="st10" d="M253.9,173.3c-10.6-0.3-12.3-1.3-10.7-4.4c-2,2.4-4.1,6.9-5.1,9.3c0.1,0,19.4,1.1,28.8,1.3
						c7.7,0.2,11.1,2.7,13.6-4.8c0.3-0.9,0.8-2,1.2-3.3C280.7,174.8,265.6,173.6,253.9,173.3z"/>
					<path class="st10" d="M243.2,168.9l0.6-1l0,0C243.6,168.2,243.4,168.6,243.2,168.9C243.2,168.9,243.2,168.9,243.2,168.9z"/>
				</g>
				<path class="st10" d="M314.3,44.6l-3.4,1.2c0,0,20.6,18.6,9.9,77.4C320.7,123.2,333.5,66.7,314.3,44.6z"/>
			</g>
			<g>
				<g>
					<path class="st4" d="M530,60.1c-4.4,4.9-8.5,19.1-4.9,25.5l6.2,5.8l34.5-18.3l3.3-26.6l-10.9-5L530,60.1z"/>
				</g>
				<g>
					<path class="st3" d="M563,43.8c-8.3-4.1-25.9-11.9-36.6-16.6c-14.3-6.3-27.1-9.8-42.6-9.6c-5.6,1.5-17.7,22-3,16.5
						c4.1-1.4,7.3-2.3,11.5-2.8c17.9,2.7,43.5,33.1,53.1,46.8l19.6-7.5l2.8-22.2L563,43.8z"/>
				</g>
				<g class="st13">
					<path class="st9" d="M521.8,42.3c-23.5-20.1-30.1-16.2-37.4-13.9c-7.2,2.3-10.3,2.3-8.7-2l0,0c-2.9,5.4-3.3,10.8,5.1,7.6
						c4.1-1.4,7.3-2.3,11.5-2.8c17.9,2.7,43.5,33.1,53.1,46.8l5.8-2.2l2.5-5.7C553.8,70.2,545.2,62.4,521.8,42.3z"/>
				</g>
				<g>
					<path class="st3" d="M676.1,318.8c0,0,22.3,43.6,26.8,52.6c1.8,3.6,2.6,11.7,5.7,14.9c0,0,12.8,0.6,21.2,0.6
						c10.7,0,18.5,0.4,15.6-3.7c-3.5-5-11.4-7.8-16.3-11.1c-7-4.8-10.5-21.2-12.4-28.9L676.1,318.8z"/>
				</g>
				<g>
					<path class="st5" d="M526.2,87.2l-1-1.6c5.6,10,50.2-28.8,37.9-41.8l-1.6-1.2c28.6,15.5,97,38.4,117.7,61.3l2.7,5.1l17,71.6
						c-3.3,33.6,9.1,65.7,12.1,98.9c1.9,21.2,0.9,42.9,5.9,63.6l-1.8,0c-20.9-4.9-75,4.2-80-2.6c8.2-54.6-0.8-116.8,2.9-153.2
						C604.2,161.8,570.3,122.6,526.2,87.2"/>
				</g>
				<g>
					<path class="st8" d="M710.9,279.7c-3-33.3-15.4-65.3-12.1-98.9l-17-71.6l-2.7-5.1C658.5,81.1,590,58.2,561.4,42.6l1.6,1.2
						c12.3,13-32.3,51.8-37.9,41.8l1,1.6c44.2,35.3,78,74.5,111.8,100.2c-0.4,3.5-0.6,7.2-0.7,11.2l2.1-3.7l21.4-3.4
						c0,0,11.4,141.2,42.5,150.4l0,0c4.5,0.2,8.6,0.6,11.9,1.4l1.8,0C711.8,322.6,712.8,300.9,710.9,279.7z"/>
					<path class="st9" d="M660.7,191.5l-21.4,3.4l-2.1,3.7c-1.4,37.1,5.2,92.7-2.2,142.1c4.2,5.7,43.5,0.1,68.1,1.2l0,0
						C672,332.7,660.7,191.5,660.7,191.5z"/>
				</g>
				<path class="st9" d="M716.8,343.2c-2.5-0.1-27.7,1-22.2,11.8l-6.6-13C688,342,703.7,340.7,716.8,343.2z"/>
				<path class="st4" d="M637.2,223.9c-0.1-6.4,38.5,16.1,59.5,10.9L637,210.1L637.2,223.9z"/>
				<g>
					<path class="st4" d="M711,173.7l0.9-0.2c0,16.6,2.8,33.6,7.9,49.4c0.8,2.5,11.1,24,10,24.8c0.1,1.5-6,4.3-7.2,4.5l-17.9-45.5
						l1.7-25.8L711,173.7z"/>
				</g>
				<g>
					<path class="st4" d="M711.9,173.5c-2.1,10.3-0.7,22.7,0.3,33c1.7,16.8,5.8,33,11.7,49.1c2.4,6.2,5.1,12.4,7.9,18.6
						c0,3.1-13.4,4.1-15.5,1.4c-4.1-11.5-10.9-26.9-13.4-40.5c0,0-10-31.1-10.1-31.8c-0.2-0.7,4.8-26.8,4.8-26.8l13.4-2.7"/>
				</g>
				<g>
					<path class="st8" d="M710.9,279.7c-1.7-18.8-6.4-37.2-9.6-55.8l-15.6,36.7l-47.8-13.2c0.9,29.6,1.8,62.7-2.8,93.3
						c5,6.8,59.1-2.3,80,2.6l1.8,0C711.8,322.6,712.8,300.9,710.9,279.7z"/>
					<path class="st8" d="M694,160.3l-12.2-51.2l-2.7-5.1C658.5,81.1,590,58.2,561.4,42.6l1.6,1.2c12.3,13-32.3,51.8-37.9,41.8
						l1,1.6c43.7,35,77.4,73.8,110.8,99.4L694,160.3L694,160.3z"/>
					<linearGradient id="SVGID_8_" gradientUnits="userSpaceOnUse" x1="664.4811" y1="219.6829" x2="654.9457" y2="246.7426">
						<stop  offset="0" style="stop-color:#B2B4C1"/>
						<stop  offset="1" style="stop-color:#FFFFFF;stop-opacity:0"/>
					</linearGradient>
					<path class="st14" d="M698.2,234.9c-2.4-14.2-4-40.4,0.6-54.2l-4.9-20.4l0,0l-57,26.4c0.3,0.2,0.7,0.5,1,0.8
						c-1.6,15.9-0.8,36.9-0.1,59.9l47.8,13.2L698.2,234.9z"/>
				</g>
				<g>
					<path class="st8" d="M710.9,279.7c-3-33.3-15.4-65.3-12.1-98.9l-17-71.6l-2.7-5.1C658.5,81.1,590,58.2,561.4,42.6l1.6,1.2
						c6,6.3-1.5,18.7-11.4,28.6l0,0c-2.3,11.1,87.6,84,108.2,89.7l-29.6,19.2c2.6,2.1,5.1,4.1,7.7,6.1c-3.7,36.4,5.2,98.7-2.9,153.2
						c5,6.8,59.1-2.3,80,2.6l1.8,0C711.8,322.6,712.8,300.9,710.9,279.7z"/>
					<path class="st9" d="M551.7,72.5L551.7,72.5C541.2,83,528,90.8,525.1,85.6l1,1.6c40.8,32.6,72.8,68.6,104.1,94.1l29.6-19.2
						C639.3,156.5,549.4,83.6,551.7,72.5z"/>
				</g>
				<g>
					<path class="st5" d="M805.7,67.7c-4.8-13.7-9.6-25.4-20.6-35.7c-31.6-30.2-72.8-19.8-110-7.4c-17.2,5.5-30.4,7.6-51.9,8.8h-1.7
						c1.4,17.9,7.6,42.6,9.6,57c23.8,0,58.5-8.6,79.6-16.1l0,0.1c-10.3,10.2-10.1,11.1-21,20l0,0c-5.5,12.3,7.1,78.7,20.3,79.2h3.6
						c5.7,0.2,35.4-2.5,60-12.8l0.8,0.1c-0.4,3.1-0.2,4.3-0.2,5.9l3.4,3.8l9.4,7.9l-9.4,22.7l-15.5,17.6c5.3,2.7,13,0.7,20-7.9
						C816.8,168.1,820.9,113.4,805.7,67.7"/>
				</g>
				<g>
					<path class="st3" d="M593.3,34.4c-2.3,0.1-3.5-1.7-1.4-5.9c9.3-16.1,17,3.9,29.6,4.8l1.7,14.1c-5.5,0-7.2,1.1-12,1.1
						C598.2,49.1,595.4,45.4,593.3,34.4z"/>
				</g>
				<g>
					<path class="st4" d="M766.9,170.8c3.4-6.6,14.6-3.9,18.3,1.3c5.1,7.1-2.4,23.2-5.3,30.3c-2.9,7.1-6.5,19-16.5,16.5l-1.3-0.1
						c-6.9-3.4-9.9-14.6-2.8-29.2L766.9,170.8z"/>
				</g>
				<g>
					<path class="st4" d="M710.7,74.3c4.4-1.6,8.2-3.2,11.1-4.5c24.4-10.1,31.1-14.4,31.1-14.4s-43,21.2-53.1,30.1L710.7,74.3z"/>
				</g>
				<g>
					<path class="st4" d="M787.4,153.8c-4.3,2.6-8.1,5.1-13,7.1l-0.2,5.9C774.2,166.8,784,159.8,787.4,153.8z"/>
				</g>
				<g>
					<path class="st4" d="M598.5,33.1c1.2,0.2,2.1-0.2,3.3,0.7c2.4,1.5,1.4,4.3,3.1,6.5c0.5,0.5,1.9,3.3,2.6,3.4
						c1.4,0.3,1.4-1.4,1-2.4c-0.3-2.2-2.6-6.2-4-7.7C602.8,31.8,600.4,31.1,598.5,33.1"/>
				</g>
				<g>
					<path class="st3" d="M768.7,178.2c0.7,3.5,7.4,14.7,10.6,11.7c3.2-3,6.9-5.3,6.9-5.3c1.1-4.9,1.2-9.5-1-12.5
						c-1.9-2.6-5.5-4.5-9.2-5C775,170.4,768,174.7,768.7,178.2z"/>
				</g>
				<path class="st4" d="M771.1,173.2l0.6-1.2c0,0,8.8-0.1,8.4,6.6l-3.3,6.7l-6.8-1.8l-2-5.4L771.1,173.2z"/>
				<g>
					<path class="st3" d="M775.2,175.2c14.8,1,8.8,6.3,6.9,11c-9.4,17.3-38.2,1.1-22-16.5c1.6-1.7,7.1-2.3,3.9,3.2l-1.7,3.5
						c0.4-1.2,2.5-4.1,3.3-4.9c1.4-1.2,3.9-1.4,5.3,0.2c1.6,1.8-0.2,4.3-1,6.1c-0.8,1.6,0.4-1,0.4-1c1.6-2.2,2.4-5.1,5.7-3.1
						c3.9,2.4-0.4,9.6-1.8,13l3-7.5c1.4-1.6,1.8-4.1,4.7-2c2.8,2.2-0.4,5.9-1.4,8.5"/>
				</g>
				<linearGradient id="SVGID_9_" gradientUnits="userSpaceOnUse" x1="745.2867" y1="125.6794" x2="731.8176" y2="86.4203">
					<stop  offset="0" style="stop-color:#B2B4C1"/>
					<stop  offset="1" style="stop-color:#FFFFFF;stop-opacity:0"/>
				</linearGradient>
				<path class="st15" d="M682.2,132.4l5-13.1l37.5-20.6c0,0,71.2-14.7,71.6-14.7c0.4,0-11.4,35.8-11.4,35.8s-9.8,3.9-10,4
					c-0.3,0.1-88.3,20.6-88.3,20.6L682.2,132.4z"/>
				<g>
					<path class="st5" d="M785,119.8c-7.2,2.1-15,2.6-22.6,3.2c-12.7,1-25.4,2.1-38.1,2.8c-15.2,0.8-33.4,2.1-47.9,7
						c-14.6,5-59.2,33.9-72.9,40.7c21.6,29.4,50.3,58.8,96,61.5c-1.7-19.2-7.6-35.4-0.3-53.9l27.2-19.2L785,119.8z"/>
				</g>
				<path class="st3" d="M805.1,57.8c-8.3,6-13.8,14-15.7,24.5c-2.2,12.4-2.2,25.1-4.4,37.5c5.7-1,10.9-4.4,15.5-7.8
					c12-9.3,10.3-18.8,11.8-31.8c1-6.5-0.2-13.9,10-16.9c3.7-1.1-7.6-6.8-7.6-6.8s-3.7-2.4-3.7-2.4C808.9,55.2,807,56.4,805.1,57.8z
					"/>
				<g>
					<path class="st3" d="M813.9,41.1c-6.2,2.9-11.6,7-13.8,11.6c-3.4,7,12.9,13.1,19.4,10.1c5.6-2.5,10-3.3,10.2-13
						C829.8,44,819.4,38.3,813.9,41.1z"/>
				</g>
				<g>
					<path class="st4" d="M814.2,41.2c1.2-0.8,3.4,0.1,4.4,0.7c2.5,1.6,3.7,6,2.6,8.7c-0.8,1.9-2.8,3.2-3.3,5.3
						c1.7-0.9,4.8-2.3,4.7,1.1c0,2.2-2.6,4.1-4.5,2.6c-0.5,1,0.3,1.9,0.4,2.9c0.1,1-0.2,2.1-0.9,3c6.4-2,10.8-5.5,12.7-12.1
						c1.8-6.2-3.1-12.3-9.1-14.2c-2.6-0.8-4.8-0.1-6.6,1.9"/>
				</g>
				<g>
					<linearGradient id="SVGID_10_" gradientUnits="userSpaceOnUse" x1="766.5835" y1="193.1198" x2="767.8718" y2="185.9051">
						<stop  offset="0" style="stop-color:#B2B4C1"/>
						<stop  offset="1" style="stop-color:#FFFFFF;stop-opacity:0"/>
					</linearGradient>
					<path class="st16" d="M768.8,188.7c-5.4-0.8-14.4-6.7-13.2-11.3c-3.4,13.6,17.4,22.9,25.8,9.8
						C779.7,189.3,773.9,189.4,768.8,188.7z"/>
				</g>
				<g>
					<path class="st4" d="M785,185.4C785,185.4,785,185.4,785,185.4c0.7-0.5,1.2-0.8,1.2-0.8c1.1-4.9,1.2-9.5-1-12.5
						c-1.9-2.6-5.5-4.5-9.2-5c-0.3,1.1-1.3,2.2-2.4,3.4C775.2,168.7,786.5,173.9,785,185.4z"/>
				</g>
				<path class="st9" d="M679.8,104.2c-5.2,18.8-2.3,53.8,13,72c3.5,3.3,8.5,5.1,8.5,5.1L679.8,104.2z"/>
				<g>
					<path class="st4" d="M711.9,173.5l-10.6,7.9c-3.4,1.5-10.6-11.1-11.8-14.3c-10.3-29.2-12.3-45.8-10-62.3
						c0.2-1.7,8.8-10.5,12.4-12.1C684.9,97.6,700.5,175.7,711.9,173.5z"/>
				</g>
				<path class="st9" d="M815.8,60.8c-3.6-0.1-9,2.1-13.1-1c-1.5,1.2-2.8,2.5-3.7,3.5l0,0c0,0,0,0,0,0c-0.2,0.2-0.4,0.4-0.5,0.5
					c-3.7,3.7-8.4,11.8-9.5,21.7c-1.1,10.4-3.9,34.3-3.9,34.3s4-16.1,6-32.2c1.4-11.8,5.4-18.2,7.4-20.7c3.2,3.6,18.5,0.2,19.3-1.4
					C818.5,63.5,819.4,60.9,815.8,60.8z"/>
				<path class="st9" d="M624.7,55.9c1.3,6.9,116.4-31.7,128.2-0.6c0,0-26.7,13.7-51.6,22c-24.9,8.3-60.7,14.1-70.2,13L624.7,55.9z"
					/>
			</g>
		</g>
	</g>
</g>
</svg>
