<?xml version="1.0" encoding="utf-8"?>
<!-- Generator: Adobe Illustrator 23.1.1, SVG Export Plug-In . SVG Version: 6.00 Build 0)  -->
<svg version="1.1" id="Capa_1" xmlns="http://www.w3.org/2000/svg" xmlns:xlink="http://www.w3.org/1999/xlink" x="0px" y="0px"
	 viewBox="0 0 222.7 496.6" style="enable-background:new 0 0 222.7 496.6;" xml:space="preserve">
<style type="text/css">
	.st0{fill:#CE7859;}
	.st1{fill:#1A1516;}
	.st2{fill:#E5916C;}
	.st3{fill:#3D3235;}
	.st4{fill:#2C2325;}
	.st5{fill:#524448;}
	.st6{clip-path:url(#SVGID_1_);fill:#1A1516;}
	.st7{clip-path:url(#SVGID_1_);}
</style>
<g>
	<g>
		<path class="st0" d="M105.2,117.6c0.8,4.1,0,13.3-4.9,14.5c-4,1-9.3-3-11.7-5.6c-7.8-8.3-13.4-15.5-9.6-27.3
			c0.1-0.4,0.3-0.9,0.7-1.2c0.7-0.6,1.8-0.3,2.7,0c4.9,1.9,9.8,3.9,14.1,6.9C100.7,108.1,104.2,112.5,105.2,117.6z"/>
		<path class="st1" d="M143.4,103.2c-1.9-7.7-8.3-14.1-16.9-14.9c-3.9-0.4-7.9-0.7-11.9-0.6c-9.5,0.1-22.3,3.5-24.5,14.4
			c-1.2,6.1-0.4,14.7,4.1,19.3c4.1,4.2,10.4,5.2,16.3,5.8c5.5,0.5,11.2,0.9,16.6-0.2c5.4-1.2,10.7-4,13.7-8.8
			C143.9,113.4,144.5,108.1,143.4,103.2z"/>
		<path class="st2" d="M54.3,464.2c-0.2-0.4-0.3-0.9-0.7-1.2c-0.5-0.3-1.1-0.3-1.6-0.3c-2.3,0.1-4.7,0.2-6.8,1.2
			c-4.1,1.9-6,6.4-8.4,10.2c-4.1,6.5-10.3,11.8-12.7,19.1c-0.3,0.8-0.5,1.7-0.1,2.4c0.5,1,2,1.2,3.1,1c3.9-0.7,6.8-3.8,9.4-6.7
			c3.7-4.2,7.6-8.4,12.3-11.4c2.1-1.4,4.5-2.6,5.7-4.8C56.2,470.9,55.4,467.3,54.3,464.2z"/>
		<path class="st2" d="M185.3,444.4c-0.2-1-0.2-2.1-0.5-3c-0.8-2.8-4-4.6-6.8-3.9c-1.8,0.5-3.2,1.7-4.5,3c-1.1,1-2.2,2-3.3,3
			c-1.4,1.3-2.9,2.9-2.5,4.8c0.4,2.3,3.2,3.1,5.2,4.1c1.6,0.8,2.9,2,4.2,3.2c4.3,3.9,8.5,7.8,12.8,11.7c2.3,2.1,5.1,4.3,8,3.5
			c0.4-5.2-1.1-10.5-4.3-14.6C190.6,452.3,186.1,449.1,185.3,444.4z"/>
		<path class="st3" d="M170.5,441.9c-0.2-0.2-0.3-0.3-0.5-0.5c-3.2-3.9-1.6-8.9-1.7-13.4c-0.2-19.8,1.3-39.6,4.7-59.1
			c2.1-12,4.8-24.2,2.7-36.2c-0.4-2.3-1-4.7-2.6-6.4c-1.5-1.7-3.7-2.6-5.8-3.6c-9.4-4.1-18.3-9.2-26.5-15.3
			c-4.2-3.1-8.2-6.6-12.1-10c-2.5-2.2-6.2-6.8-9.6-7.2c-5.3-0.6-6.7,7.8-8.2,11.3c-1.9,4.5-4.4,8.7-6.9,12.9
			c-8.4,14.3-16.8,28.7-25.3,43c-1.7,3-3.5,5.9-4.6,9.1c-1.2,3.4-1.7,7-2.3,10.5c-4.1,27.1-8.1,54.3-12.2,81.4
			c-0.6,3.9-1,7.7-3.8,10.5c-5.3,0.4-15,3.1-20,0.4c-4.9-2.7-4.3-11.1-4.9-15.8c-1.3-11.4-2.6-22.8-4-34.2
			c-2.8-24.1-6.4-50.5,0.9-74c7.1-22.8,16.7-44.7,28.4-65.5c3.2-5.7,6.4-11.5,11.2-15.9c1.8-1.7,3.9-4.3,6.2-5.2
			c26.8-10.6,56.4-11.5,85.2-11.9c16-0.2,24.9,9.8,34.9,21.1c12.1,13.7,24.6,30.4,28.4,48.6c0.8,3.8,0.6,7.8,0.4,11.7
			c-1.3,16.8-5.1,33.4-9,49.8c-1.6,6.8-3.2,13.7-5.3,20.4c-3.1,9.9-8.1,19-13,28.1c-3.3,6.2-5.5,16.3-13.4,17.9
			C178.2,445.3,173.2,444.6,170.5,441.9z"/>
		<path class="st2" d="M96.8,105.7c2.6-11.2,21.8-13.9,30.7-10.7c8.2,2.9,9.1,17.7,1.8,21.6c-2.4,1.3-5.1,1.9-7.8,2.3
			c-6,1-16.4,3-22.2-0.1C94.9,116.4,95.8,110.3,96.8,105.7z"/>
		<path class="st4" d="M120.8,102.5c-4.5,0.3-9,0.6-13.6,1c-4.8,0.4-9.9,2.4-14.7,1.4c-9.4-1.8-1.3-11.4,2-16
			c2.7-3.9,5.5-7.7,9-10.9c3.5-3.2,7.9-5.6,12.6-5.9c8.3-0.6,16.5,5,21.6,11.2c4.5,5.5,10.7,16.5,0.1,17.8
			C132,101.6,126.4,102.1,120.8,102.5z"/>
		<path class="st3" d="M141.6,111.8c0,0.6,0,1.3-0.1,1.9c-0.3,4.6-0.5,8.3,1.5,12.8c1.4,3.2,2.9,4.2,2,8.1c-1.2,5.1-5.6,9.6-8.4,14
			c-3.3,5.2-7.6,9.7-12.5,13.4c-0.8,0.6-1.6,1.2-2.5,1.5c-2,0.8-4.4,0.2-6.3-0.9c-8-4.7-14.7-11.6-22.2-17.1
			c-6.6-4.9-2.3-4.6,0.2-10.9c2-5-1.6-11.1-3.5-15.6c-3.6-8.1,14.8-6.1,19.4-6.6c9.2-1,18.4-2.5,27.5-4.6
			C140.8,107.1,141.6,109.1,141.6,111.8z"/>
		<path class="st1" d="M192.8,265.1c-0.7-4-5.9-6.7-8.4-9.6c-3.2-3.6-6.7-7.3-9.6-11.3c-6.3-8.8-9.6-19.4-11.7-29.8
			c-3.9-19.9-1.5-40.7,3.8-60.3c2.8-10.3,7.3-21.3-6.3-24c-6.6-1.3-15.5-1.1-21.8,1.3c-10.8,4.2-17,15.5-21.1,26.3
			c-5,13.4-10.9,30.6-11.2,45.2c-0.3,15.4-11.2,29.1-14,44.3C90,261,110.8,265.6,121,268.5c13,3.7,26.4,4.9,39.8,3.8
			c9.1-0.7,22.3,1.3,30.4-4.1C192.5,267.3,193,266.2,192.8,265.1z"/>
		<path class="st4" d="M165,224.5c-1.4,8.3-13.1,12.1-18.5,17.1c-8.3,7.7-17.2,14.8-26.9,20.7c-12,7.3-25.3,12.8-39.3,15.3
			c-4.1,0.7-8.1,1.5-12.3,1.6c-2.2,0.1-8.1,1.5-9.9,0.9c-5.8-1.8,1.2-8.8,2.9-11.5c8.3-13.2,18.9-26.7,24.4-41.4
			c2.8-7.5-1.9-13.6-5-20.2c-3.5-7.2-7.6-14.2-10-21.9c-3.3-10.5-4.4-21.5-5.4-32.4c-0.5-5.6-1-12.4,3.8-15.1c4,0.2,8,0.2,11.9-0.1
			c3.5-0.3,6.8-1.9,10-2.3c6.7-0.8,11.9,3.3,16.2,7.8c11.4,12.1,26.2,20.1,39.7,29.3c4.5,3.1,12.6,5.7,15.6,10.4
			c2.3,3.6,1.1,6.4,0.6,10C161.2,203.2,166.7,214.1,165,224.5C165.1,224.4,165.1,224.5,165,224.5z"/>
		<path class="st3" d="M57.3,183.8c-16.6-11.7-30.5-27.3-41-44.7c-5.3-8.7-10-18-13.3-27.7c-1.8-5.4-7.2-20.7,3.3-21.4
			c7.7-0.5,13.3-6.1,21.7-6.2c8.2-0.2,16.5-0.1,24.6,1c10.1,1.5,20.1,4.8,28.2,11c0.9,0.7,1.7,1.4,2.1,2.4c0.4,1.3,0,2.6-0.5,3.9
			c-1.5,4.2-3.1,8.5-4.6,12.7c-7.8,0.6-15.6,0.4-23.4-0.4c-3.9-0.4-7.7-1.2-11.6-1.8c-5.2-0.9-6.2,2.8-3,6.1c4,4,10,7.6,14.8,10.7
			c8.8,5.8,25.3,14.1,24.7,26.4c-0.3,6.2-0.8,12.4-1.6,18.5c-0.6,4.2-0.4,14.3-3.1,17.6C73,194,64.5,188.9,57.3,183.8z"/>
		<path class="st4" d="M164.6,169.9c0.4,1.1,0.8,2.1,1.4,3c2.7,4.1,8.4,6.7,12.3,9.4c5.7,4,9.3,9,14.2,13.6c3.9,3.7,12.4,7.9,17.3,4
			c4.1-3.2,4.3-9.3,3.4-14.4c-2-12.2-8.3-23.4-16.7-32.4c-7.2-7.8-18.2-18.4-29-19.9c-8.8-1.2-5,21.3-4.6,27.1
			C163.3,163.2,163.6,166.8,164.6,169.9z"/>
		<path class="st3" d="M162.2,127.2c9,6.4-9.8,32.2-13.6,38.3c-15.2,24.4-33.9,45.2-51,68.1c-6.2,8.3-13.3,16.3-20.1,24.1
			c-2.9,3.3-7.2,6.6-11.8,6c-1.4-7.7,7.2-15.6,11.4-21.2c5-6.7,11.1-12.6,16.4-19.1c7.1-8.6,13.6-17.8,19.8-27.1
			c9.4-14,18-28.5,27.5-42.4c4.2-6.1,7.7-11.6,9.7-18.7C151.6,131.2,156.4,123.1,162.2,127.2z"/>
		<path class="st0" d="M134,165.4c-0.4-0.3-0.7-0.6-1.1-0.9c-3.6-3.3-10.4-10-15.1-4.7c-7.4,8.2,0.4,21.8,10.3,22
			c4.1,0.1,9.3,0.4,11.4-4.1C142.5,171.3,138.1,168.8,134,165.4z"/>
		<path class="st5" d="M197.2,171.8c-3-2.4-6.4-4.4-10.2-5.9c-7.6-3-15.6-4-23.7-3.4c-5,0.4-10-0.2-14.9,0.4
			c-3.1,0.4-7.2,0.4-10,1.9c-4.3,2.3-4.3,7.3-4.7,11.9c-0.6,7.1,14.4,8.4,20,10c11,3.1,21.9,6.3,32.9,9.4c6.2,1.8,12.4,6.4,19.1,5.7
			c8.2-0.8,11.2-5.5,6.5-12.6C207.8,182.7,203.2,176.5,197.2,171.8z"/>
		<g>
			<defs>
				<path id="SVGID_3_" d="M90.8,112.9c-2.2-2.6-4.2-5.4-5.8-7.2c-5.1-5.5-9-12.5-13.7-18.4c-9.8-12.5-20.4-24.4-30-37.1
					c-7.1-9.3-13.9-18.9-19.6-29c-2-3.5-6.9-8.1-6.5-12.4c0.4-4.2,5-7.2,8.8-8.3c6.6-1.9,9.4,2.4,12.9,7.1
					c13.3,17.6,23.9,37,35.8,55.5c6.1,9.5,12.6,18.7,19.8,27.4c4.7,5.6,9.7,11.4,12.8,18.1c1.2,2.6,2.9,6,1,8
					c-1.1,1.1-7,2.6-8.6,2.1C95.4,117.9,93.1,115.5,90.8,112.9z"/>
			</defs>
			<clipPath id="SVGID_1_">
				<use xlink:href="#SVGID_3_"  style="overflow:visible;"/>
			</clipPath>
			<path class="st6" d="M90.8,112.9c-2.2-2.6-4.2-5.4-5.8-7.2c-5.1-5.5-9-12.5-13.7-18.4c-9.8-12.5-20.4-24.4-30-37.1
				c-7.1-9.3-13.9-18.9-19.6-29c-2-3.5-6.9-8.1-6.5-12.4c0.4-4.2,5-7.2,8.8-8.3c6.6-1.9,9.4,2.4,12.9,7.1
				c13.3,17.6,23.9,37,35.8,55.5c6.1,9.5,12.6,18.7,19.8,27.4c4.7,5.6,9.7,11.4,12.8,18.1c1.2,2.6,2.9,6,1,8c-1.1,1.1-7,2.6-8.6,2.1
				C95.4,117.9,93.1,115.5,90.8,112.9z"/>
			<g class="st7">
				<path class="st3" d="M10.6,25.4c6.6-5.7,14.9-9.2,22.1-14c3.4-2.2,6.7-4.8,10.1-7.1c2.8-1.9,6.5-3.7,8.7-6.3
					c0.5-0.6,0.4-1.8-0.5-2C43.5-5.3,35.6,2.9,30,6.8c-7.5,5.4-15.9,8.8-22,16C6.4,24.7,8.8,27,10.6,25.4L10.6,25.4z"/>
			</g>
			<g class="st7">
				<path class="st3" d="M20.9,34c6.4-2.4,12.1-5.9,17.8-9.5c3.1-2,6.2-4,9.4-5.8c2.9-1.7,6-2.7,8.2-5.2c1.6-1.8,0.5-4.4-1.9-4.6
					c-5.9-0.4-12.3,4.8-16.7,8.2c-6.1,4.8-11.9,10-17.9,14.9C18.8,32.8,19.8,34.4,20.9,34L20.9,34z"/>
			</g>
			<g class="st7">
				<path class="st3" d="M27.7,46.9c7-3.7,13.3-8.2,19.7-12.9c5.3-4,12-7.5,15.4-13.4c0.7-1.3-0.5-2.8-1.9-2.5
					c-6.7,1.4-12,6.9-17.2,11c-6.2,4.8-12.3,9.7-18,15.1C24.1,45.6,26,47.8,27.7,46.9L27.7,46.9z"/>
			</g>
			<g class="st7">
				<path class="st3" d="M33.4,56.8c7.6-2.2,14-5.7,20.6-10c6.1-4,12.8-8.2,16.9-14.3c0.9-1.3-0.6-2.9-2-2.5
					c-6.9,1.9-12.5,7.1-18.1,11.4c-5.9,4.5-12.1,9-18.4,12.9C31.1,55.1,31.9,57.2,33.4,56.8L33.4,56.8z"/>
			</g>
			<g class="st7">
				<path class="st3" d="M41.9,69.7c5.8-2.6,10.8-6.4,15.7-10.4c5.2-4.2,11.7-8.8,15-14.6c1.1-1.9-1.1-4.1-3-3
					c-5.4,3-9.7,8.4-14.2,12.6c-5,4.5-10.3,8.7-15,13.5C39.3,68.8,40.6,70.3,41.9,69.7L41.9,69.7z"/>
			</g>
			<g class="st7">
				<path class="st3" d="M52.1,80.7c5.3-3,9.7-6.6,14.3-10.6c4.4-3.8,9.9-7.3,13.3-12.1c1.4-1.9-0.9-4.1-2.8-3.7
					c-5.6,1.2-10.1,6-13.9,10c-4.4,4.6-8.5,9.4-13,13.8C48.7,79.4,50.4,81.7,52.1,80.7L52.1,80.7z"/>
			</g>
		</g>
	</g>
</g>
</svg>
